<svg width="168" height="168" viewBox="0 0 168 168" fill="none" xmlns="http://www.w3.org/2000/svg">
<g clip-path="url(#clip0_114_105)">
<path d="M161.28 75.1804C162.012 77.1032 162.391 79.1422 162.4 81.1995C162.392 90.4756 154.875 97.993 145.6 98.0005C143.505 98.0021 141.43 97.6027 139.485 96.8239C138.015 98.8005 136.129 100.43 133.96 101.596C131.79 102.763 129.391 103.438 126.932 103.574C124.472 103.711 122.013 103.305 119.728 102.385C117.443 101.465 115.388 100.054 113.709 98.2518C112.745 100.862 111.146 103.191 109.056 105.028C106.966 106.865 104.452 108.154 101.74 108.776C99.0282 109.398 96.204 109.336 93.5224 108.593C90.8407 107.851 88.3861 106.453 86.38 104.525C84.8162 111.401 79.1252 116.57 72.1296 117.465C65.1339 118.36 58.324 114.79 55.0802 108.529C53.5581 108.964 51.9837 109.19 50.4005 109.2C43.2624 109.196 36.9063 104.682 34.5517 97.9441C34.2439 97.9723 33.9365 98.0005 33.5992 98.0005C30.6474 98.0029 27.7472 97.2268 25.1911 95.7506C22.635 94.2744 20.5134 92.1502 19.0403 89.5923C11.2164 89.3321 4.6103 83.7025 3.11044 76.021C1.61091 68.3387 5.61633 60.6392 12.7672 57.4564C11.7327 55.2482 11.1975 52.8392 11.1997 50.4007C11.2073 41.1246 18.7246 33.6073 27.9994 33.5994C28.9378 33.6047 29.8733 33.6814 30.7999 33.8304V33.5994C30.8078 24.325 38.3251 16.8076 47.5999 16.7997C50.0386 16.7972 52.4478 17.3329 54.6556 18.3685C55.7845 15.8327 57.5241 13.6161 59.719 11.917C61.9138 10.2178 64.4955 9.08897 67.2333 8.63139C69.9709 8.17363 72.7794 8.40135 75.4075 9.29419C78.0357 10.187 80.4016 11.7172 82.2939 13.7478C84.7483 7.1125 91.1044 2.73138 98.1797 2.80061C105.253 2.86985 111.524 7.37402 113.848 14.0553C115.975 12.6249 118.403 11.7009 120.943 11.3544C123.483 11.0079 126.069 11.248 128.502 12.0562C130.935 12.8645 133.151 14.2195 134.979 16.0172C136.807 17.8149 138.199 20.0075 139.048 22.4268C139.33 22.4087 139.665 22.3998 140 22.3998C149.275 22.4074 156.792 29.9247 156.8 39.1995C156.8 39.7878 156.772 40.3762 156.715 40.9645C158.601 43.7494 159.606 47.0372 159.599 50.4007C159.599 50.8683 159.571 51.3349 159.516 51.8002C166.345 57.8255 167.128 68.1976 161.28 75.1804Z" fill="#FF5364"/>
<path d="M99.3205 33.5992C98.9266 33.5999 98.537 33.5173 98.1774 33.3567C97.8178 33.196 97.4962 32.9611 97.2339 32.6674C95.9212 31.1987 94.3133 30.0238 92.5153 29.2193C90.7172 28.4148 88.7696 27.999 86.7999 27.999C84.8301 27.999 82.8825 28.4148 81.0845 29.2193C79.2864 30.0238 77.6785 31.1987 76.3658 32.6674C76.123 32.9499 75.8263 33.1812 75.4931 33.3476C75.1598 33.5141 74.7966 33.6124 74.4249 33.6367C74.0532 33.6611 73.6803 33.611 73.3282 33.4895C72.976 33.3679 72.6517 33.1773 72.3741 32.9288C72.0966 32.6803 71.8714 32.379 71.7118 32.0424C71.5521 31.7058 71.4613 31.3407 71.4445 30.9686C71.4277 30.5964 71.4854 30.2247 71.6141 29.8751C71.7428 29.5255 71.94 29.2051 72.194 28.9326C74.0321 26.8774 76.2831 25.2332 78.8001 24.1075C81.3171 22.9818 84.0433 22.3999 86.8005 22.3999C89.5578 22.3999 92.2839 22.9818 94.8009 24.1075C97.3179 25.2332 99.569 26.8774 101.407 28.9326C101.768 29.3354 102.004 29.8339 102.087 30.3681C102.171 30.9022 102.098 31.4491 101.877 31.9426C101.656 32.4361 101.298 32.8552 100.844 33.1492C100.39 33.4431 99.8611 33.5995 99.3205 33.5992ZM126 106.4C115.181 106.387 106.413 97.6197 106.4 86.8008C106.394 86.4295 106.462 86.0608 106.6 85.7161C106.739 85.3714 106.944 85.0576 107.204 84.793C107.465 84.5285 107.776 84.3184 108.118 84.1749C108.461 84.0315 108.828 83.9577 109.2 83.9577C109.571 83.9577 109.939 84.0315 110.281 84.1749C110.624 84.3184 110.934 84.5285 111.195 84.793C111.455 85.0576 111.661 85.3714 111.799 85.7161C111.937 86.0608 112.005 86.4295 112 86.8008C111.992 94.0832 117.57 100.156 124.827 100.766C132.084 101.376 138.598 96.32 139.805 89.1383C139.887 88.6536 140.094 88.1988 140.407 87.8195C140.719 87.4403 141.126 87.15 141.586 86.9778C142.047 86.8055 142.544 86.7574 143.029 86.8383C143.514 86.9192 143.969 87.1263 144.348 87.4386C144.728 87.7514 145.018 88.1585 145.19 88.6192C145.362 89.0798 145.41 89.5777 145.328 90.0626C143.763 99.5113 135.577 106.43 126 106.4Z" fill="#DF4D60"/>
<path d="M144.991 97.9889C143.103 97.9192 141.24 97.525 139.485 96.8237C138.015 98.8003 136.129 100.43 133.96 101.596C131.79 102.763 129.391 103.438 126.932 103.574C124.472 103.711 122.013 103.304 119.728 102.385C117.443 101.465 115.388 100.054 113.709 98.2517C111.339 104.65 105.331 108.975 98.5105 109.192C101.977 129.213 124.092 131.6 134.4 131.6C151.251 131.6 157.734 115.09 144.991 97.9889Z" fill="#DF4D60"/>
<path d="M118.695 160.661C120.501 150.673 121.71 140.586 122.316 130.454C112.172 128.423 100.904 123.007 98.5119 109.194C98.3925 109.197 98.2222 109.2 98.0004 109.2C93.669 109.198 89.5059 107.523 86.3802 104.525C85.6291 107.824 83.8973 110.82 81.4124 113.117C87.5312 119.245 96.4661 139.285 97.8248 159.952C98.0053 162.897 100.445 165.196 103.396 165.2H113.197C114.499 165.203 115.761 164.752 116.765 163.923C117.769 163.094 118.452 161.94 118.695 160.661Z" fill="#802F34"/>
<path d="M89.5996 81.1995C89.0399 81.1998 88.493 81.0323 88.0294 80.7186C87.5659 80.405 87.207 79.9595 86.9992 79.4398L78.4001 57.9384L69.8009 79.4398C69.2267 80.8753 67.5975 81.5736 66.1607 81.0007C65.4711 80.7249 64.9192 80.1865 64.6265 79.504C64.3337 78.8214 64.324 78.0505 64.5995 77.3608L75.7994 49.3612C76.0071 48.8412 76.3659 48.3953 76.8294 48.0812C77.293 47.7671 77.8401 47.5991 78.4001 47.5989C78.96 47.5991 79.5069 47.7671 79.9704 48.0812C80.4339 48.3952 80.7927 48.841 81.0005 49.3609L92.2004 77.3608C92.3699 77.7858 92.4329 78.2458 92.3837 78.7007C92.3345 79.1556 92.1747 79.5915 91.9182 79.9704C91.6618 80.3493 91.3163 80.6596 90.9121 80.8739C90.5078 81.0882 90.0572 81.2 89.5996 81.1995Z" fill="#FDD7AD"/>
<path d="M86.2404 72.8002H70.56C70.1923 72.8001 69.8282 72.7276 69.4886 72.5868C69.1489 72.446 68.8403 72.2397 68.5803 71.9796C68.3204 71.7196 68.1142 71.4109 67.9736 71.0711C67.833 70.7314 67.7607 70.3673 67.7607 69.9996C67.7607 68.4542 69.0142 67.2004 70.56 67.2004H86.2411C87.7865 67.2004 89.04 68.4538 89.04 69.9996C89.0401 70.7421 88.7454 71.4543 88.2205 71.9795C87.6956 72.5047 86.9836 72.7999 86.2411 72.8002H86.2404ZM100.8 81.1995C100.058 81.1995 99.3455 80.9046 98.8205 80.3797C98.2955 79.8547 98.0005 79.1427 98.0004 78.4003V50.4007C98.0004 49.6581 98.2954 48.946 98.8205 48.4209C99.3456 47.8958 100.058 47.6008 100.8 47.6008C101.543 47.6008 102.255 47.8958 102.78 48.4209C103.305 48.946 103.6 49.6581 103.6 50.4007V78.4003C103.6 79.9458 102.347 81.1992 100.8 81.1992L100.8 81.1995Z" fill="#FDD7AD"/>
<path d="M53.1999 140.001C53.1999 153.918 41.918 165.2 27.9996 165.2C14.0825 165.2 2.80054 153.918 2.80054 140.001C2.80054 126.082 14.0825 114.801 27.9996 114.801C41.918 114.801 53.1999 126.082 53.1999 140.001Z" fill="#F0C419"/>
<path d="M53.2021 142.8C52.5712 142.801 51.9585 142.588 51.4635 142.197C50.9685 141.806 50.6201 141.259 50.4749 140.645C50.3297 140.031 50.396 139.386 50.6633 138.814C50.9306 138.243 51.383 137.778 51.9473 137.496L65.6518 130.642C66.1184 130.412 66.511 130.055 66.7847 129.612C67.0584 129.169 67.2024 128.659 67.2002 128.138V106.4C67.2002 104.854 68.4537 103.6 69.9995 103.6C70.3672 103.6 70.7313 103.672 71.0711 103.813C71.4108 103.954 71.7196 104.16 71.9796 104.42C72.2397 104.68 72.446 104.989 72.5867 105.328C72.7275 105.668 72.8 106.032 72.8 106.4V128.138C72.805 129.699 72.3726 131.231 71.5519 132.559C70.7312 133.887 69.5549 134.959 68.1564 135.653L54.4519 142.505C54.0639 142.699 53.6362 142.8 53.2024 142.8L53.2021 142.8ZM15.3063 121.037C14.8164 121.037 14.3351 120.909 13.9101 120.665C13.4852 120.421 13.1314 120.071 12.8841 119.648L7.74039 110.829C6.95423 109.469 6.56284 107.916 6.61013 106.346C6.65743 104.775 7.14154 103.249 8.00813 101.938L25.3627 75.9058C25.5667 75.5999 25.8289 75.3371 26.1345 75.1325C26.4401 74.928 26.7829 74.7856 27.1435 74.7135C27.5041 74.6414 27.8754 74.6411 28.2361 74.7125C28.5968 74.7839 28.9399 74.9256 29.2459 75.1296C29.5518 75.3336 29.8146 75.5959 30.0191 75.9015C30.2237 76.207 30.3661 76.5499 30.4382 76.9105C30.5103 77.2711 30.5106 77.6423 30.4392 78.003C30.3678 78.3638 30.2261 78.7069 30.022 79.0128L12.6688 105.044C12.3805 105.481 12.2194 105.99 12.2033 106.513C12.1873 107.037 12.317 107.554 12.5779 108.008L17.7242 116.827C17.9723 117.252 18.1038 117.735 18.1055 118.228C18.1072 118.72 17.9791 119.204 17.7341 119.631C17.4888 120.058 17.1352 120.413 16.709 120.66C16.2828 120.907 15.7988 121.037 15.3063 121.037ZM44.8005 5.59978H2.80046C2.05789 5.59978 1.34572 5.30479 0.820641 4.77971C0.29556 4.25463 0.000572266 3.54247 0.000572266 2.79989C0.000572266 2.05731 0.29556 1.34515 0.820641 0.820069C1.34572 0.294988 2.05789 0 2.80046 0L44.8005 0C46.3463 0 47.5997 1.25344 47.5997 2.80055C47.5997 4.34634 46.3459 5.59978 44.8005 5.59978ZM8.40057 16.8H2.80046C2.05784 16.8 1.34564 16.505 0.820525 15.9799C0.295413 15.4548 0.000408203 14.7426 0.000408203 13.9999C0.000408203 13.2573 0.295413 12.5451 0.820525 12.02C1.34564 11.4949 2.05784 11.1999 2.80046 11.1999H8.40057C9.94604 11.1999 11.1995 12.4533 11.1995 14.0004C11.1995 15.5459 9.94604 16.8 8.40057 16.8ZM16.7999 27.9996H2.80013C2.05756 27.9996 1.34539 27.7046 0.820313 27.1795C0.295232 26.6544 0.000244141 25.9422 0.000244141 25.1997C0.000244141 24.4571 0.295232 23.7449 0.820313 23.2199C1.34539 22.6948 2.05756 22.3998 2.80013 22.3998H16.7999C17.1712 22.3941 17.5399 22.4623 17.8846 22.6005C18.2293 22.7386 18.543 22.944 18.8076 23.2045C19.0722 23.4651 19.2823 23.7757 19.4257 24.1182C19.5691 24.4607 19.643 24.8283 19.643 25.1997C19.643 25.571 19.5691 25.9386 19.4257 26.2812C19.2823 26.6237 19.0722 26.9343 18.8076 27.1948C18.543 27.4554 18.2293 27.6607 17.8846 27.7989C17.5399 27.937 17.1712 28.0052 16.7999 27.9996ZM165.199 145.6H134.401C134.029 145.606 133.661 145.538 133.316 145.4C132.971 145.261 132.657 145.056 132.393 144.795C132.128 144.535 131.918 144.224 131.775 143.882C131.631 143.539 131.557 143.172 131.557 142.8C131.557 142.429 131.631 142.061 131.775 141.719C131.918 141.376 132.128 141.066 132.393 140.805C132.657 140.545 132.971 140.339 133.316 140.201C133.661 140.063 134.029 139.995 134.401 140H165.199C165.942 140 166.654 140.295 167.179 140.821C167.704 141.346 167.999 142.058 167.999 142.8C167.999 143.543 167.704 144.255 167.179 144.78C166.654 145.305 165.942 145.6 165.199 145.6ZM165.199 156.8H148.399C147.657 156.8 146.945 156.505 146.42 155.979C145.895 155.454 145.6 154.742 145.6 154C145.6 152.454 146.854 151.2 148.399 151.2H165.199C165.567 151.2 165.931 151.273 166.271 151.413C166.611 151.554 166.919 151.76 167.179 152.02C167.439 152.28 167.645 152.589 167.786 152.929C167.927 153.268 167.999 153.633 167.999 154C167.999 154.368 167.927 154.732 167.786 155.072C167.645 155.411 167.439 155.72 167.179 155.98C166.919 156.24 166.611 156.446 166.271 156.587C165.931 156.728 165.567 156.8 165.199 156.8ZM165.199 168H128.8C128.429 168.006 128.06 167.937 127.716 167.799C127.371 167.661 127.057 167.456 126.793 167.195C126.528 166.935 126.318 166.624 126.175 166.282C126.031 165.939 125.957 165.571 125.957 165.2C125.957 164.829 126.031 164.461 126.175 164.119C126.318 163.776 126.528 163.466 126.793 163.205C127.057 162.944 127.371 162.739 127.716 162.601C128.06 162.463 128.429 162.395 128.8 162.4H165.199C165.942 162.4 166.654 162.695 167.179 163.22C167.704 163.745 167.999 164.458 167.999 165.2C167.999 165.943 167.704 166.655 167.179 167.18C166.654 167.705 165.942 168 165.199 168ZM27.9995 16.8H19.6001C18.8575 16.8 18.1453 16.505 17.6202 15.9799C17.0951 15.4548 16.8001 14.7426 16.8001 13.9999C16.8001 13.2573 17.0951 12.5451 17.6202 12.02C18.1453 11.4949 18.8575 11.1999 19.6001 11.1999H27.9995C28.3708 11.1942 28.7395 11.2624 29.0842 11.4006C29.4289 11.5387 29.7426 11.7441 30.0072 12.0046C30.2718 12.2652 30.4819 12.5758 30.6253 12.9183C30.7687 13.2608 30.8426 13.6284 30.8426 13.9998C30.8426 14.3711 30.7687 14.7387 30.6253 15.0813C30.4819 15.4238 30.2718 15.7344 30.0072 15.9949C29.7426 16.2555 29.4289 16.4608 29.0842 16.599C28.7395 16.7371 28.3708 16.8057 27.9995 16.8ZM165.199 131.6C164.457 131.6 163.745 131.305 163.22 130.78C162.695 130.255 162.4 129.543 162.4 128.801V97.5184C162.398 96.7766 162.103 96.0655 161.58 95.5395L144.78 78.7385C144.266 78.2114 143.98 77.503 143.985 76.7667C143.989 76.0304 144.284 75.3256 144.804 74.805C145.325 74.2841 146.03 73.9893 146.767 73.9845C147.503 73.9796 148.212 74.2651 148.739 74.779L165.539 91.5803C166.321 92.3583 166.942 93.2837 167.364 94.303C167.786 95.3222 168.003 96.4151 168 97.5184V128.801C168 129.168 167.928 129.532 167.787 129.872C167.646 130.211 167.44 130.52 167.18 130.779C166.92 131.04 166.611 131.246 166.271 131.387C165.931 131.527 165.567 131.6 165.199 131.6Z" fill="#464F5D"/>
<path d="M27.9996 114.8V140H2.80054C2.80054 126.083 14.0825 114.801 27.9996 114.8V114.8Z" fill="#2980BA"/>
<path d="M53.1998 140.001C53.2051 142.243 52.9037 144.475 52.3041 146.636C52.2424 146.931 52.1579 147.222 52.0514 147.504C51.801 148.28 51.5209 149.046 51.2117 149.801C50.8967 150.555 50.5414 151.294 50.1479 152.012C49.7759 152.73 49.3549 153.423 48.888 154.084C48.4437 154.758 47.9574 155.403 47.4321 156.016C46.9205 156.64 46.3784 157.237 45.8078 157.808L27.9995 140.001V114.801C41.9166 114.802 53.1989 126.083 53.1998 140.001Z" fill="#FF5364"/>
<path d="M75.5992 100.8C75.5992 103.893 73.0923 106.4 69.9994 106.4C66.9065 106.4 64.3997 103.893 64.3997 100.8C64.3997 97.7069 66.9065 95.2 69.9994 95.2C73.0923 95.2 75.5992 97.7069 75.5992 100.8V100.8ZM148.4 72.8002C148.4 75.8931 145.892 78.4003 142.8 78.4003C139.707 78.4003 137.2 75.8931 137.2 72.8002C137.2 69.7073 139.707 67.2004 142.8 67.2004C145.892 67.2004 148.4 69.7073 148.4 72.8002ZM36.4001 72.8002C36.4001 75.8931 33.8929 78.4003 30.8 78.4003C27.7071 78.4003 25.2002 75.8931 25.2002 72.8002C25.2002 69.7073 27.7071 67.2004 30.8 67.2004C33.8929 67.2004 36.4001 69.7073 36.4001 72.8002Z" fill="#F0C419"/>
</g>
<defs>
<clipPath id="clip0_114_105">
<rect width="168" height="168" fill="white"/>
</clipPath>
</defs>
</svg>
