<svg width="168" height="168" viewBox="0 0 168 168" fill="none" xmlns="http://www.w3.org/2000/svg">
<path d="M160.781 80.7188C160.781 125.117 124.789 161.109 80.3906 161.109C35.9924 161.109 0 125.117 0 80.7188C0 36.3205 35.9924 0.328125 80.3906 0.328125C124.789 0.328125 160.781 36.3205 160.781 80.7188Z" fill="white"/>
<path d="M98.0979 117.134C98.0979 97.9529 113.703 82.3479 132.886 82.3479C141.308 82.3479 149.041 85.3575 155.066 90.3574V38.3906H12.9341V124.458C16.6349 130.152 21.0386 135.357 26.041 139.949H106.646C101.324 133.838 98.0979 125.855 98.0979 117.134Z" fill="#EEF6FF"/>
<path d="M12.9341 38.3906V124.458C15.859 128.96 19.2288 133.144 22.9688 136.963V38.3906H12.9341Z" fill="#D9EAFC"/>
<path d="M151.785 18.375H16.2153C14.4106 18.375 12.9341 19.8516 12.9341 21.6562V38.7188H155.066V21.6562C155.066 19.8516 153.589 18.375 151.785 18.375Z" fill="#EA2A3D"/>
<path d="M26.2501 18.375H16.2153C14.4106 18.375 12.9341 19.8516 12.9341 21.6562V38.7188H22.9688V21.6562C22.9688 19.8516 24.4454 18.375 26.2501 18.375Z" fill="#B7092B"/>
<path d="M49.4083 62.4388C49.4083 63.3412 48.67 64.0795 47.7677 64.0795H24.4399C23.5376 64.0795 22.7993 63.3412 22.7993 62.4388V48.5713C22.7993 47.6689 23.5376 46.9307 24.4399 46.9307H47.7677C48.67 46.9307 49.4083 47.6689 49.4083 48.5713V62.4388ZM81.3388 62.4388C81.3388 63.3412 80.6005 64.0795 79.6982 64.0795H56.3708C55.4684 64.0795 54.7301 63.3412 54.7301 62.4388V48.5713C54.7301 47.6689 55.4684 46.9307 56.3708 46.9307H79.6985C80.6008 46.9307 81.3391 47.6689 81.3391 48.5713L81.3388 62.4388ZM113.27 62.4388C113.27 63.3412 112.531 64.0795 111.629 64.0795H88.3016C87.3992 64.0795 86.661 63.3412 86.661 62.4388V48.5713C86.661 47.6689 87.3992 46.9307 88.3016 46.9307H111.629C112.532 46.9307 113.27 47.6689 113.27 48.5713L113.27 62.4388Z" fill="#91E0E8"/>
<path d="M145.201 62.4388C145.201 63.3412 144.462 64.0795 143.56 64.0795H120.232C119.33 64.0795 118.592 63.3412 118.592 62.4388V48.5713C118.592 47.6689 119.33 46.9307 120.232 46.9307H143.56C144.462 46.9307 145.201 47.6689 145.201 48.5713V62.4388Z" fill="#FFC987"/>
<path d="M49.4083 84.3167C49.4083 85.219 48.67 85.9573 47.7677 85.9573H24.4399C23.5376 85.9573 22.7993 85.219 22.7993 84.3167V70.4495C22.7993 69.5471 23.5376 68.8088 24.4399 68.8088H47.7677C48.67 68.8088 49.4083 69.5471 49.4083 70.4495V84.3167ZM81.3388 84.3167C81.3388 85.219 80.6005 85.9573 79.6982 85.9573H56.3708C55.4684 85.9573 54.7301 85.219 54.7301 84.3167V70.4495C54.7301 69.5471 55.4684 68.8088 56.3708 68.8088H79.6985C80.6008 68.8088 81.3391 69.5471 81.3391 70.4495L81.3388 84.3167ZM113.27 84.3167C113.27 85.219 112.531 85.9573 111.629 85.9573H88.3016C87.3992 85.9573 86.661 85.219 86.661 84.3167V70.4495C86.661 69.5471 87.3992 68.8088 88.3016 68.8088H111.629C112.532 68.8088 113.27 69.5471 113.27 70.4495L113.27 84.3167Z" fill="#91E0E8"/>
<path d="M132.884 82.3479C137.209 82.3479 141.35 83.144 145.172 84.591C145.19 84.5005 145.199 84.4088 145.201 84.3167V70.4495C145.201 69.5471 144.462 68.8088 143.56 68.8088H120.232C119.33 68.8088 118.592 69.5471 118.592 70.4495V84.3167C118.592 84.6779 118.713 85.009 118.912 85.2804C123.192 83.3963 127.918 82.3479 132.884 82.3479Z" fill="#FFC987"/>
<path d="M49.4083 106.196C49.4083 107.098 48.67 107.837 47.7677 107.837H24.4399C23.5376 107.837 22.7993 107.098 22.7993 106.196V92.3289C22.7993 91.4265 23.5376 90.6882 24.4399 90.6882H47.7677C48.67 90.6882 49.4083 91.4265 49.4083 92.3289V106.196ZM81.3388 106.196C81.3388 107.098 80.6005 107.837 79.6982 107.837H56.3708C55.4684 107.837 54.7301 107.098 54.7301 106.196V92.3289C54.7301 91.4265 55.4684 90.6882 56.3708 90.6882H79.6985C80.6008 90.6882 81.3391 91.4265 81.3391 92.3289L81.3388 106.196ZM110.313 90.6882H88.3016C87.3992 90.6882 86.661 91.4265 86.661 92.3289V106.196C86.661 107.098 87.3992 107.837 88.3016 107.837H99.3617C101.241 101.071 105.117 95.1294 110.313 90.6882ZM49.4083 128.074C49.4083 128.976 48.67 129.714 47.7677 129.714H24.4399C23.5376 129.714 22.7993 128.976 22.7993 128.074V114.207C22.7993 113.305 23.5376 112.567 24.4399 112.567H47.7677C48.67 112.567 49.4083 113.305 49.4083 114.207V128.074ZM81.3388 128.074C81.3388 128.976 80.6005 129.714 79.6982 129.714H56.3708C55.4684 129.714 54.7301 128.976 54.7301 128.074V114.207C54.7301 113.305 55.4684 112.567 56.3708 112.567H79.6985C80.6008 112.567 81.3391 113.305 81.3391 114.207L81.3388 128.074ZM98.0978 117.134C98.0978 115.586 98.2001 114.062 98.3977 112.566H88.3013C87.3989 112.566 86.6606 113.305 86.6606 114.207V128.074C86.6606 128.976 87.3989 129.714 88.3013 129.714H100.452C98.9332 125.812 98.0978 121.569 98.0978 117.134Z" fill="#91E0E8"/>
<path d="M24.9375 10.6204C24.6143 10.6202 24.2942 10.6838 23.9956 10.8074C23.697 10.9311 23.4256 11.1123 23.1971 11.3409C22.9685 11.5694 22.7873 11.8408 22.6636 12.1394C22.54 12.438 22.4764 12.7581 22.4766 13.0813V26.623C22.4766 27.9815 23.5774 29.084 24.9375 29.084C26.2976 29.084 27.3984 27.9815 27.3984 26.623V13.0813C27.3984 11.7215 26.2976 10.6204 24.9375 10.6204ZM36.75 10.6204C36.4268 10.6202 36.1067 10.6838 35.8081 10.8074C35.5095 10.9311 35.2381 11.1123 35.0096 11.3409C34.781 11.5694 34.5998 11.8408 34.4761 12.1394C34.3525 12.438 34.2889 12.7581 34.2891 13.0813V26.623C34.2891 27.9815 35.3899 29.084 36.75 29.084C38.1101 29.084 39.2109 27.9815 39.2109 26.623V13.0813C39.2109 11.7215 38.1101 10.6204 36.75 10.6204ZM48.5625 10.6204C48.2393 10.6202 47.9192 10.6838 47.6206 10.8074C47.322 10.9311 47.0506 11.1123 46.8221 11.3409C46.5935 11.5694 46.4123 11.8408 46.2886 12.1394C46.165 12.438 46.1014 12.7581 46.1016 13.0813V26.623C46.1016 27.9815 47.2024 29.084 48.5625 29.084C49.9226 29.084 51.0234 27.9815 51.0234 26.623V13.0813C51.0234 11.7215 49.9226 10.6204 48.5625 10.6204ZM60.375 10.6204C60.0518 10.6202 59.7317 10.6838 59.4331 10.8074C59.1345 10.9311 58.8631 11.1123 58.6346 11.3409C58.406 11.5694 58.2248 11.8408 58.1011 12.1394C57.9775 12.438 57.9139 12.7581 57.9141 13.0813V26.623C57.9141 27.9815 59.0149 29.084 60.375 29.084C61.7351 29.084 62.8359 27.9815 62.8359 26.623V13.0813C62.8359 11.7215 61.7351 10.6204 60.375 10.6204ZM72.1875 10.6204C71.8643 10.6202 71.5442 10.6838 71.2456 10.8074C70.947 10.9311 70.6756 11.1123 70.4471 11.3409C70.2185 11.5694 70.0373 11.8408 69.9136 12.1394C69.79 12.438 69.7264 12.7581 69.7266 13.0813V26.623C69.7266 27.9815 70.8274 29.084 72.1875 29.084C73.5476 29.084 74.6484 27.9815 74.6484 26.623V13.0813C74.6484 11.7215 73.5476 10.6204 72.1875 10.6204ZM84 10.6204C83.6768 10.6202 83.3567 10.6838 83.0581 10.8074C82.7595 10.9311 82.4881 11.1123 82.2596 11.3409C82.031 11.5694 81.8498 11.8408 81.7261 12.1394C81.6025 12.438 81.5389 12.7581 81.5391 13.0813V26.623C81.5391 27.9815 82.6399 29.084 84 29.084C85.3601 29.084 86.4609 27.9815 86.4609 26.623V13.0813C86.4609 11.7215 85.3601 10.6204 84 10.6204ZM95.8125 10.6204C95.4893 10.6202 95.1692 10.6838 94.8706 10.8074C94.572 10.9311 94.3006 11.1123 94.0721 11.3409C93.8435 11.5694 93.6623 11.8408 93.5386 12.1394C93.415 12.438 93.3514 12.7581 93.3516 13.0813V26.623C93.3516 27.9815 94.4524 29.084 95.8125 29.084C97.1726 29.084 98.2734 27.9815 98.2734 26.623V13.0813C98.2734 11.7215 97.1726 10.6204 95.8125 10.6204ZM107.625 10.6204C107.302 10.6202 106.982 10.6838 106.683 10.8074C106.384 10.9311 106.113 11.1123 105.885 11.3409C105.656 11.5694 105.475 11.8408 105.351 12.1394C105.228 12.438 105.164 12.7581 105.164 13.0813V26.623C105.164 27.9815 106.265 29.084 107.625 29.084C108.985 29.084 110.086 27.9815 110.086 26.623V13.0813C110.086 11.7215 108.985 10.6204 107.625 10.6204ZM119.438 10.6204C119.114 10.6202 118.794 10.6838 118.496 10.8074C118.197 10.9311 117.926 11.1123 117.697 11.3409C117.469 11.5694 117.287 11.8408 117.164 12.1394C117.04 12.438 116.976 12.7581 116.977 13.0813V26.623C116.977 27.9815 118.077 29.084 119.438 29.084C120.798 29.084 121.898 27.9815 121.898 26.623V13.0813C121.898 11.7215 120.798 10.6204 119.438 10.6204ZM131.25 10.6204C130.927 10.6202 130.607 10.6838 130.308 10.8074C130.009 10.9311 129.738 11.1123 129.51 11.3409C129.281 11.5694 129.1 11.8408 128.976 12.1394C128.853 12.438 128.789 12.7581 128.789 13.0813V26.623C128.789 27.9815 129.89 29.084 131.25 29.084C132.61 29.084 133.711 27.9815 133.711 26.623V13.0813C133.711 11.7215 132.61 10.6204 131.25 10.6204ZM143.062 10.6204C142.739 10.6202 142.419 10.6838 142.121 10.8074C141.822 10.9311 141.551 11.1123 141.322 11.3409C141.094 11.5694 140.912 11.8408 140.789 12.1394C140.665 12.438 140.601 12.7581 140.602 13.0813V26.623C140.602 27.9815 141.702 29.084 143.062 29.084C144.423 29.084 145.523 27.9815 145.523 26.623V13.0813C145.523 11.7215 144.423 10.6204 143.062 10.6204Z" fill="#C3DDF4"/>
<path d="M168 117.134C168 136.528 152.278 152.25 132.884 152.25C113.492 152.25 97.7698 136.528 97.7698 117.134C97.7698 97.7416 113.492 82.0198 132.884 82.0198C152.278 82.0198 168 97.7416 168 117.134Z" fill="#1A2B63"/>
<path d="M132.884 143.063C118.588 143.063 106.957 131.432 106.957 117.134C106.957 102.838 118.588 91.2073 132.884 91.2073C147.182 91.2073 158.813 102.838 158.813 117.134C158.813 131.432 147.182 143.063 132.884 143.063Z" fill="white"/>
<path d="M111.881 117.134C111.881 103.668 122.2 92.571 135.346 91.3277C134.528 91.2488 133.707 91.2086 132.885 91.2073C118.589 91.2073 106.957 102.838 106.957 117.136C106.957 131.432 118.588 143.063 132.885 143.063C133.715 143.063 134.535 143.019 135.346 142.943C122.2 141.699 111.881 130.601 111.881 117.134Z" fill="#EEF6FF"/>
<path d="M132.884 91.2073V111.768C135.845 111.768 138.252 114.175 138.252 117.134H158.811C158.812 102.838 147.182 91.2073 132.884 91.2073Z" fill="#FFDD8D"/>
<path d="M132.884 111.768C133.773 111.768 134.608 111.987 135.345 112.37V98.7952C135.345 97.4351 134.244 96.3342 132.884 96.3342C132.231 96.3342 131.605 96.5935 131.144 97.055C130.682 97.5165 130.423 98.1425 130.423 98.7952V112.37C131.183 111.974 132.027 111.767 132.884 111.768ZM147.105 114.673H137.65C138.046 115.433 138.253 116.277 138.253 117.134C138.253 117.991 138.046 118.835 137.65 119.595H147.105C147.758 119.595 148.384 119.336 148.845 118.874C149.307 118.413 149.566 117.787 149.566 117.134C149.566 116.481 149.307 115.855 148.845 115.394C148.384 114.932 147.758 114.673 147.105 114.673Z" fill="#0F9390"/>
<path d="M132.884 122.83C129.744 122.83 127.189 120.276 127.189 117.135C127.189 113.994 129.744 111.439 132.884 111.439C136.026 111.439 138.58 113.994 138.58 117.136C138.58 120.276 136.026 122.83 132.884 122.83Z" fill="#2BB381"/>
<path d="M132.884 140.602C132.231 140.602 131.605 140.342 131.144 139.881C130.682 139.419 130.423 138.793 130.423 138.141V135.516C130.423 134.863 130.682 134.237 131.144 133.776C131.605 133.314 132.231 133.055 132.884 133.055C134.244 133.055 135.345 134.156 135.345 135.516V138.141C135.345 139.501 134.244 140.602 132.884 140.602ZM118.031 134.449C117.708 134.45 117.388 134.386 117.089 134.263C116.791 134.139 116.519 133.958 116.291 133.729C115.83 133.267 115.571 132.641 115.571 131.988C115.571 131.335 115.831 130.709 116.292 130.248L118.148 128.392C118.61 127.93 119.236 127.671 119.888 127.672C120.541 127.672 121.167 127.931 121.628 128.393C121.857 128.622 122.038 128.893 122.162 129.191C122.285 129.49 122.349 129.81 122.349 130.133C122.349 130.456 122.285 130.776 122.162 131.075C122.038 131.373 121.857 131.644 121.628 131.873L119.772 133.729C119.544 133.958 119.273 134.139 118.974 134.263C118.675 134.387 118.355 134.45 118.031 134.449ZM114.504 119.596H111.879C111.226 119.596 110.6 119.336 110.139 118.875C109.678 118.413 109.418 117.787 109.418 117.134C109.419 116.482 109.678 115.856 110.14 115.395C110.601 114.934 111.227 114.675 111.879 114.674H114.504C115.157 114.674 115.783 114.934 116.244 115.395C116.706 115.857 116.965 116.483 116.965 117.135C116.965 117.788 116.706 118.414 116.244 118.876C115.783 119.337 115.157 119.596 114.504 119.596ZM119.887 106.6C119.564 106.6 119.244 106.536 118.945 106.413C118.646 106.289 118.375 106.107 118.147 105.878L116.291 104.022C115.83 103.561 115.571 102.935 115.571 102.282C115.571 101.629 115.83 101.003 116.292 100.542C116.521 100.314 116.792 100.132 117.09 100.008C117.389 99.8847 117.709 99.821 118.032 99.821C118.355 99.821 118.675 99.8847 118.974 100.008C119.272 100.132 119.544 100.314 119.772 100.542L121.628 102.398C122.089 102.86 122.348 103.486 122.348 104.139C122.348 104.792 122.088 105.418 121.627 105.879C121.399 106.108 121.128 106.29 120.829 106.413C120.531 106.537 120.211 106.6 119.888 106.6H119.887ZM147.738 134.449C147.415 134.45 147.094 134.386 146.796 134.263C146.497 134.139 146.226 133.957 145.998 133.727L144.142 131.872C143.913 131.643 143.732 131.372 143.608 131.073C143.485 130.775 143.421 130.455 143.421 130.132C143.421 129.808 143.485 129.488 143.609 129.19C143.733 128.891 143.914 128.62 144.143 128.392C144.371 128.163 144.643 127.982 144.941 127.858C145.24 127.734 145.56 127.671 145.883 127.671C146.206 127.671 146.526 127.734 146.825 127.858C147.123 127.982 147.394 128.163 147.623 128.392L149.479 130.249C149.823 130.593 150.057 131.032 150.152 131.509C150.247 131.986 150.198 132.481 150.012 132.93C149.825 133.38 149.51 133.764 149.105 134.035C148.701 134.305 148.225 134.449 147.738 134.449Z" fill="#60D882"/>
<path d="M34.6171 60.7442C34.2482 60.7442 33.884 60.6613 33.5514 60.5015C33.2189 60.3417 32.9265 60.1092 32.6959 59.8212L27.2819 53.0536C27.08 52.8013 26.9298 52.5116 26.8398 52.2012C26.7498 51.8908 26.7219 51.5657 26.7576 51.2445C26.7933 50.9233 26.8919 50.6122 27.0477 50.3291C27.2036 50.046 27.4138 49.7964 27.6661 49.5945C27.9184 49.3925 28.208 49.2422 28.5183 49.1522C28.8287 49.0622 29.1538 49.0342 29.475 49.0699C29.7962 49.1056 30.1072 49.2042 30.3902 49.3601C30.6733 49.5161 30.9228 49.7263 31.1246 49.9788L34.6171 54.3445L43.5241 43.2112C43.726 42.9588 43.9756 42.7487 44.2587 42.5928C44.5418 42.4369 44.8528 42.3383 45.174 42.3026C45.4952 42.267 45.8203 42.2949 46.1307 42.3849C46.4412 42.4748 46.7308 42.625 46.9832 42.8269C47.4927 43.2348 47.8194 43.8283 47.8915 44.4769C47.9636 45.1255 47.7752 45.7762 47.3677 46.286L36.5396 59.8212C36.3087 60.1091 36.0161 60.3416 35.6833 60.5013C35.3506 60.6611 34.9862 60.7441 34.6171 60.7442ZM34.6171 104.18C34.2481 104.18 33.8837 104.097 33.5512 103.937C33.2186 103.777 32.9263 103.544 32.6959 103.256L27.2819 96.4882C27.0799 96.2359 26.9296 95.9463 26.8395 95.636C26.7495 95.3256 26.7215 95.0005 26.7572 94.6793C26.7929 94.3581 26.8915 94.0471 27.0475 93.7641C27.2035 93.481 27.4137 93.2315 27.6661 93.0297C27.9183 92.8277 28.2079 92.6773 28.5182 92.5872C28.8286 92.4971 29.1536 92.469 29.4748 92.5046C29.796 92.5403 30.1071 92.6389 30.3901 92.7948C30.6732 92.9507 30.9228 93.1609 31.1246 93.4133L34.6171 97.7787L43.5241 86.6454C43.726 86.3931 43.9757 86.1831 44.2589 86.0273C44.542 85.8715 44.8531 85.773 45.1743 85.7374C45.4955 85.7019 45.8206 85.7299 46.131 85.82C46.4413 85.9101 46.7309 86.0605 46.9832 86.2625C47.2355 86.4643 47.4456 86.7138 47.6015 86.9968C47.7573 87.2798 47.8559 87.5908 47.8917 87.9119C47.9274 88.233 47.8995 88.558 47.8096 88.8684C47.7197 89.1787 47.5695 89.4683 47.3677 89.7206L36.5396 103.256C36.3089 103.544 36.0163 103.777 35.6836 103.937C35.3508 104.097 34.9863 104.18 34.6171 104.18ZM66.7734 82.6055C66.4043 82.6056 66.04 82.5226 65.7074 82.3626C65.3748 82.2027 65.0825 81.9699 64.8522 81.6815L59.4381 74.914C59.236 74.6618 59.0855 74.3722 58.9954 74.0618C58.9053 73.7514 58.8772 73.4263 58.9129 73.105C58.9486 72.7838 59.0473 72.4728 59.2034 72.1897C59.3594 71.9067 59.5698 71.6572 59.8224 71.4555C60.0745 71.2534 60.3641 71.103 60.6744 71.0129C60.9848 70.9227 61.3098 70.8947 61.631 70.9303C61.9522 70.9659 62.2633 71.0644 62.5463 71.2203C62.8294 71.3762 63.079 71.5864 63.2808 71.8388L66.7734 76.2045L75.6803 65.0712C76.0883 64.5617 76.6819 64.2352 77.3306 64.1634C77.9793 64.0915 78.6299 64.2804 79.1394 64.6883C79.3917 64.8901 79.6018 65.1396 79.7577 65.4226C79.9136 65.7056 80.0122 66.0166 80.0479 66.3377C80.0836 66.6588 80.0557 66.9838 79.9658 67.2941C79.8759 67.6045 79.7258 67.8941 79.524 68.1464L68.6959 81.6815C68.4652 81.9698 68.1726 82.2025 67.8398 82.3624C67.5071 82.5224 67.1426 82.6055 66.7734 82.6055Z" fill="#02AF8E"/>
</svg>
