<svg width="168" height="168" viewBox="0 0 168 168" fill="none" xmlns="http://www.w3.org/2000/svg">
<path fill-rule="evenodd" clip-rule="evenodd" d="M52.4769 93.2085C70.7156 93.2085 85.638 102.884 85.638 121.122V128.995C85.638 131.952 88.0495 134.363 91.006 134.363H105.959V147.781H31.5283L19.3157 137.752V121.122C19.3157 102.884 34.2381 93.2085 52.4769 93.2085Z" fill="#E33F65"/>
<path fill-rule="evenodd" clip-rule="evenodd" d="M91.006 134.363H97.5267V147.781H31.5283L19.3157 137.752V121.122C19.3157 103.452 33.3222 93.8196 50.7807 93.2363C66.5401 93.82 79.1835 103.452 79.1835 121.122V128.995C79.1835 131.951 81.3601 134.363 84.0289 134.363H91.006V134.363Z" fill="#FA6E85"/>
<path d="M53.5214 91.3629C62.7622 90.7782 69.7794 82.8132 69.1948 73.5724C68.6102 64.3316 60.6451 57.3144 51.4043 57.899C42.1635 58.4836 35.1463 66.4487 35.7309 75.6895C36.3155 84.9303 44.2806 91.9475 53.5214 91.3629Z" fill="#F0B16E"/>
<path fill-rule="evenodd" clip-rule="evenodd" d="M49.9562 58.0518C41.8926 59.2674 35.7112 66.226 35.7112 74.6287C35.7112 82.6164 41.2975 89.2984 48.7759 90.9835C56.8395 89.7678 63.0209 82.8092 63.0209 74.4066C63.0213 66.4188 57.4349 59.7368 49.9562 58.0518Z" fill="#FCD4A9"/>
<path fill-rule="evenodd" clip-rule="evenodd" d="M32.8488 116.066H73.7763C75.7816 116.066 77.4222 117.707 77.4222 119.712V148.212H29.2029V119.712C29.2029 117.707 30.8436 116.066 32.8488 116.066Z" fill="#CCCCCC"/>
<path fill-rule="evenodd" clip-rule="evenodd" d="M29.2029 143.272H77.4222V148.212H29.2029V143.272Z" fill="#B3B3B3"/>
<path fill-rule="evenodd" clip-rule="evenodd" d="M53.3126 125.25C56.4827 125.25 59.0528 127.821 59.0528 130.991C59.0528 134.161 56.4827 136.731 53.3126 136.731C50.1424 136.731 47.572 134.161 47.572 130.991C47.572 127.821 50.1421 125.25 53.3126 125.25ZM24.9209 145.916H81.7039C82.8218 145.916 83.7364 146.83 83.7364 147.948V153.068C83.7364 154.186 82.8218 155.1 81.7039 155.1H24.9209C23.803 155.1 22.8884 154.186 22.8884 153.068V147.948C22.8884 146.83 23.803 145.916 24.9209 145.916Z" fill="#60B7FE"/>
<path fill-rule="evenodd" clip-rule="evenodd" d="M113.278 147.782L115.452 126.068C115.487 125.729 115.451 125.386 115.345 125.061C115.239 124.737 115.066 124.438 114.837 124.185C114.607 123.932 114.328 123.73 114.015 123.592C113.703 123.454 113.365 123.383 113.024 123.385H101.34C100.998 123.383 100.66 123.454 100.348 123.592C100.036 123.73 99.7558 123.932 99.5268 124.185C99.2977 124.438 99.1245 124.737 99.0185 125.061C98.9124 125.386 98.8759 125.729 98.9113 126.068L101.086 147.782H113.278Z" fill="#19CFBA"/>
<path fill-rule="evenodd" clip-rule="evenodd" d="M113.278 147.782L114.751 133.065H110.547C106.5 133.065 103.189 136.376 103.189 140.424C103.189 144.471 106.5 147.782 110.547 147.782H113.278Z" fill="#00BFA9"/>
<path fill-rule="evenodd" clip-rule="evenodd" d="M112.058 147.782H116.937C118.281 147.782 119.377 146.685 119.377 145.341V138.024C119.377 136.68 118.281 135.583 116.937 135.583H112.058C108.704 135.583 105.959 138.328 105.959 141.683C105.959 145.037 108.703 147.782 112.058 147.782Z" fill="#F0B16E"/>
<path fill-rule="evenodd" clip-rule="evenodd" d="M96.0798 79.7463C96.2722 79.5539 96.5006 79.4013 96.752 79.2973C97.0034 79.1934 97.2728 79.14 97.5449 79.1404C97.8169 79.1407 98.0862 79.1948 98.3373 79.2994C98.5885 79.404 98.8165 79.5572 99.0083 79.75C99.2002 79.9429 99.352 80.1718 99.4553 80.4235C99.5585 80.6752 99.611 80.9448 99.6099 81.2169C99.6088 81.4889 99.5539 81.758 99.4486 82.0089C99.3432 82.2597 99.1894 82.4873 98.996 82.6785C93.3266 88.3311 93.2705 93.3747 98.9637 98.8129C106.383 105.9 106.351 113.611 98.996 120.885C98.8024 121.077 98.573 121.228 98.3208 121.331C98.0687 121.434 97.7988 121.486 97.5265 121.484C97.2542 121.483 96.9849 121.428 96.7339 121.322C96.4829 121.217 96.2552 121.063 96.0637 120.869C95.8722 120.675 95.7207 120.446 95.6179 120.194C95.5151 119.942 95.463 119.672 95.4645 119.399C95.466 119.127 95.5211 118.858 95.6267 118.607C95.7322 118.356 95.8862 118.128 96.0798 117.937C101.768 112.311 101.841 107.282 96.1121 101.81C88.7191 94.748 88.756 87.0667 96.0798 79.7463ZM109.358 89.296C104.328 94.3239 104.311 99.7564 109.39 104.608C112.794 107.859 112.74 110.636 109.358 113.982C109.164 114.173 109.01 114.401 108.904 114.652C108.799 114.903 108.744 115.172 108.742 115.444C108.741 115.717 108.793 115.987 108.896 116.239C108.998 116.491 109.15 116.72 109.341 116.914C109.533 117.108 109.761 117.261 110.012 117.367C110.263 117.473 110.532 117.528 110.804 117.529C111.076 117.531 111.346 117.479 111.599 117.376C111.851 117.273 112.08 117.122 112.274 116.93C117.323 111.936 117.336 106.476 112.241 101.61C108.864 98.3835 108.9 95.5913 112.274 92.228C112.47 92.0373 112.626 91.8096 112.733 91.5581C112.841 91.3066 112.897 91.0363 112.9 90.7629C112.902 90.4894 112.85 90.2182 112.747 89.965C112.643 89.7118 112.491 89.4815 112.298 89.2876C112.105 89.0937 111.876 88.94 111.623 88.8354C111.37 88.7308 111.099 88.6773 110.826 88.6781C110.553 88.6788 110.282 88.7339 110.03 88.8399C109.778 88.946 109.549 89.101 109.358 89.296Z" fill="#FFBF31"/>
<path d="M114.27 56.1288C115.138 48.2233 109.432 41.1117 101.526 40.2445C93.621 39.3773 86.5094 45.0829 85.6422 52.9884C84.775 60.8939 90.4807 68.0055 98.3861 68.8727C106.292 69.7399 113.403 64.0342 114.27 56.1288Z" fill="#FFBF31"/>
<path fill-rule="evenodd" clip-rule="evenodd" d="M97.7471 68.7913C90.8493 67.7228 85.5691 61.7591 85.5691 54.562C85.5691 47.3649 90.8493 41.4012 97.7471 40.3328C104.645 41.4012 109.925 47.3649 109.925 54.562C109.925 61.7591 104.645 67.7228 97.7471 68.7913Z" fill="#FFE177"/>
<path fill-rule="evenodd" clip-rule="evenodd" d="M105.608 47.2668C106.089 47.5219 106.451 47.9563 106.613 48.4759C106.776 48.9955 106.728 49.5583 106.478 50.0423C106.229 50.5262 105.799 50.8924 105.281 51.0612C104.763 51.2301 104.2 51.1881 103.713 50.9443C102.274 50.2021 99.9163 49.6598 98.2571 50.4175L98.2574 50.4188C97.0902 50.9437 97.1449 51.5868 98.2759 52.1341C99.5228 52.7379 101.267 52.1976 103.508 53.254L103.509 53.252C105.382 54.1639 106.634 55.6772 106.75 57.7406C106.754 57.8226 106.754 57.9036 106.749 57.9835H106.75C106.573 60.6631 104.53 62.3529 102.043 62.9688C102.043 66.0915 97.8952 65.8009 97.8952 63.164V63.0316C96.6749 62.8276 95.4854 62.4392 94.3387 61.8731C93.8543 61.6258 93.4868 61.1979 93.3156 60.6817C93.1444 60.1656 93.1834 59.6028 93.424 59.1151C93.6646 58.6275 94.0875 58.2542 94.6013 58.076C95.115 57.8978 95.6783 57.929 96.1692 58.163C97.6167 58.8773 100.112 59.4939 101.718 58.7214C102.875 58.165 102.883 57.5219 101.694 56.9782C100.391 56.3822 98.832 56.9305 96.5482 55.8882L96.5489 55.8869C92.0606 53.7496 92.2629 48.5755 96.5563 46.6439L96.5566 46.6449C96.987 46.4455 97.4352 46.2869 97.8952 46.1711C97.8952 43.0171 102.043 43.3309 102.043 45.9601V46.0992C103.324 46.3089 104.505 46.6973 105.608 47.2668Z" fill="#D1991F"/>
<path fill-rule="evenodd" clip-rule="evenodd" d="M43.8141 80.9805C43.6526 80.745 43.5396 80.4796 43.4817 80.2C43.4238 79.9203 43.4221 79.6319 43.4768 79.3516C43.5314 79.0713 43.6413 78.8046 43.8001 78.5672C43.9588 78.3298 44.1632 78.1263 44.4013 77.9687C44.6395 77.811 44.9066 77.7024 45.1872 77.649C45.4678 77.5956 45.7561 77.5986 46.0355 77.6578C46.3149 77.717 46.5798 77.8312 46.8146 77.9938C47.0494 78.1563 47.2495 78.364 47.4033 78.6047C50.3557 83.0496 54.5974 83.0493 57.5498 78.6043C57.8667 78.1326 58.3574 77.8054 58.9147 77.694C59.472 77.5827 60.0507 77.6962 60.5245 78.0099C60.9984 78.3236 61.329 78.812 61.4442 79.3685C61.5593 79.925 61.4497 80.5045 61.1393 80.9805C56.4867 87.9855 48.508 88.0224 43.8141 80.9805Z" fill="#CF8C48"/>
<path fill-rule="evenodd" clip-rule="evenodd" d="M35.5849 28.8817C35.1917 29.2641 34.6628 29.4747 34.1144 29.467C33.566 29.4594 33.0431 29.2343 32.6607 28.8411C32.2783 28.4479 32.0678 27.919 32.0754 27.3706C32.083 26.8222 32.3082 26.2993 32.7013 25.9169C43.7295 15.1797 61.2247 15.1797 72.2529 25.9172C72.6382 26.3014 72.8566 26.8219 72.8608 27.366C72.8649 27.91 72.6545 28.4338 72.2751 28.8238C71.8957 29.2138 71.378 29.4386 70.834 29.4494C70.29 29.4603 69.7637 29.2563 69.369 28.8817C59.957 19.7184 44.9828 19.7227 35.5849 28.8817Z" fill="#60B7FE"/>
<path fill-rule="evenodd" clip-rule="evenodd" d="M42.3875 35.8631C41.9936 36.2418 41.4659 36.4492 40.9196 36.44C40.3733 36.4308 39.8528 36.2059 39.4719 35.8142C39.0909 35.4225 38.8804 34.896 38.8864 34.3497C38.8923 33.8033 39.1142 33.2815 39.5037 32.8983C46.7401 25.853 58.2141 25.8534 65.4506 32.8986C65.8359 33.2828 66.0543 33.8033 66.0584 34.3473C66.0626 34.8914 65.8522 35.4152 65.4728 35.8052C65.0934 36.1952 64.5756 36.42 64.0316 36.4308C63.4877 36.4417 62.9613 36.2377 62.5667 35.8631C56.9474 30.3927 47.9977 30.3954 42.3875 35.8631Z" fill="#60B7FE"/>
<path d="M52.477 48.489C55.3212 48.489 57.6269 46.1833 57.6269 43.3391C57.6269 40.4949 55.3212 38.1892 52.477 38.1892C49.6328 38.1892 47.3271 40.4949 47.3271 43.3391C47.3271 46.1833 49.6328 48.489 52.477 48.489Z" fill="#60B7FE"/>
<path d="M139.064 91.9874C147.046 88.6842 150.839 79.5354 147.536 71.5529C144.233 63.5705 135.084 59.7771 127.102 63.0803C119.119 66.3835 115.326 75.5324 118.629 83.5148C121.932 91.4973 131.081 95.2906 139.064 91.9874Z" fill="#FFBF31"/>
<path fill-rule="evenodd" clip-rule="evenodd" d="M131.098 93.0881C123.377 92.1309 117.4 85.5466 117.4 77.5663C117.4 69.5856 123.377 63.0017 131.098 62.0444C138.819 63.0017 144.796 69.586 144.796 77.5663C144.796 85.5466 138.819 92.1309 131.098 93.0881Z" fill="#FFE177"/>
<path fill-rule="evenodd" clip-rule="evenodd" d="M139.086 69.8007C139.567 70.0557 139.928 70.4902 140.091 71.0097C140.254 71.5293 140.205 72.0921 139.956 72.5761C139.707 73.0601 139.276 73.4262 138.759 73.5951C138.241 73.764 137.678 73.722 137.191 73.4782C135.628 72.6721 132.947 72.0498 131.142 72.8865L131.109 72.9016L131.11 72.9026C129.696 73.5383 129.759 74.4281 131.128 75.0903C132.518 75.7626 134.68 75.1985 136.889 76.347C138.834 77.358 140.107 78.8391 140.23 81.0284C140.234 81.1104 140.234 81.1914 140.229 81.2714H140.23C140.04 84.1522 137.791 85.9421 135.116 86.557V86.9098C135.116 87.4598 134.898 87.9873 134.509 88.3762C134.12 88.7651 133.592 88.9836 133.042 88.9836C132.492 88.9836 131.965 88.7651 131.576 88.3762C131.187 87.9873 130.969 87.4598 130.969 86.9098V86.6141C129.603 86.4011 128.283 85.9781 127.005 85.3477C126.521 85.1005 126.154 84.6725 125.982 84.1564C125.811 83.6402 125.85 83.0774 126.091 82.5898C126.331 82.1021 126.754 81.7288 127.268 81.5506C127.782 81.3724 128.345 81.4037 128.836 81.6376C130.462 82.44 133.222 83.1106 135.019 82.2454C136.369 81.5949 136.45 80.7153 135.055 80.0557C133.546 79.3421 131.869 79.9704 129.4 78.8444L129.401 78.8431C127.411 77.8952 126.081 76.3207 125.936 74.1626C125.864 73.0773 126.326 71.8402 126.965 70.9992C127.56 70.2173 128.375 69.593 129.409 69.128L129.409 69.129C129.909 68.8972 130.432 68.7171 130.969 68.5914V68.2225C130.969 67.6725 131.187 67.145 131.576 66.7561C131.965 66.3672 132.493 66.1487 133.043 66.1487C133.593 66.1487 134.12 66.3672 134.509 66.7561C134.898 67.145 135.116 67.6725 135.116 68.2225V68.5259C136.544 68.7446 137.856 69.1653 139.086 69.8007Z" fill="#D1991F"/>
<path d="M143.031 40.0674C149.244 33.855 149.244 23.7827 143.031 17.5702C136.819 11.3578 126.747 11.3578 120.534 17.5702C114.322 23.7827 114.322 33.855 120.534 40.0674C126.747 46.2799 136.819 46.2799 143.031 40.0674Z" fill="#FFBF31"/>
<path fill-rule="evenodd" clip-rule="evenodd" d="M129.8 44.5909C121.959 43.6075 115.892 36.9164 115.892 28.8077C115.892 20.699 121.959 14.0079 129.8 13.0244C137.642 14.0079 143.709 20.699 143.709 28.8077C143.709 36.9164 137.642 43.6071 129.8 44.5909Z" fill="#FFE177"/>
<path fill-rule="evenodd" clip-rule="evenodd" d="M137.931 20.9414C138.412 21.1965 138.773 21.6309 138.936 22.1505C139.098 22.6701 139.05 23.2329 138.8 23.7168C138.551 24.2008 138.121 24.567 137.603 24.7358C137.085 24.9047 136.522 24.8627 136.035 24.6189C134.436 23.7937 131.699 23.1603 129.853 24.0168L129.82 24.0319L129.82 24.0333C128.355 24.6928 128.419 25.6353 129.838 26.3221C131.261 27.0099 133.462 26.436 135.695 27.5992C137.662 28.6234 138.95 30.1149 139.074 32.3311C139.079 32.4131 139.078 32.4941 139.073 32.5741H139.074C138.881 35.4983 136.588 37.3086 133.874 37.9239V38.3109C133.874 38.8609 133.655 39.3884 133.266 39.7773C132.877 40.1662 132.35 40.3847 131.8 40.3847C131.25 40.3847 130.723 40.1662 130.334 39.7773C129.945 39.3884 129.726 38.8609 129.726 38.3109V37.98C128.33 37.7649 126.981 37.3348 125.676 36.6907C125.192 36.4435 124.824 36.0155 124.653 35.4994C124.482 34.9832 124.521 34.4205 124.761 33.9328C125.002 33.4451 125.425 33.0718 125.939 32.8936C126.452 32.7154 127.016 32.7467 127.507 32.9806C129.17 33.8015 131.988 34.4839 133.825 33.5989C135.224 32.9252 135.31 31.9898 133.862 31.3083C132.305 30.5759 130.619 31.221 128.111 30.0766L128.111 30.0752C126.099 29.117 124.754 27.526 124.608 25.344C124.535 24.2497 125.002 22.9997 125.647 22.1513C126.248 21.3611 127.071 20.7297 128.119 20.2583L128.119 20.259C128.634 20.0205 129.173 19.8358 129.726 19.7079V19.3047C129.726 18.7547 129.945 18.2273 130.334 17.8384C130.723 17.4494 131.25 17.231 131.8 17.231C132.35 17.231 132.877 17.4494 133.266 17.8384C133.655 18.2273 133.874 18.7547 133.874 19.3047V19.6434C135.333 19.8645 136.674 20.2926 137.931 20.9414Z" fill="#D1991F"/>
</svg>
