<svg width="168" height="168" viewBox="0 0 168 168" fill="none" xmlns="http://www.w3.org/2000/svg">
<path fill-rule="evenodd" clip-rule="evenodd" d="M84.0046 14.0786C93.4546 14.0786 101.119 21.7426 101.119 31.1926C101.119 40.8753 93.5475 42.9123 92.6734 52.9667H75.3267C74.4618 42.9119 66.8906 40.8753 66.8906 31.1926C66.8906 21.7426 74.555 14.0786 84.005 14.0786H84.0046Z" fill="#FFB122"/>
<path fill-rule="evenodd" clip-rule="evenodd" d="M88.8228 52.9667H75.3267C74.4618 42.9119 66.8906 40.8753 66.8906 31.1926C66.8906 22.3936 73.5319 15.148 82.0795 14.1902C90.618 15.1483 97.2589 22.394 97.2589 31.1926C97.2589 40.8753 89.6973 42.9123 88.8228 52.9667Z" fill="#FFC738"/>
<path fill-rule="evenodd" clip-rule="evenodd" d="M45.749 165.707H122.251V146.444C122.251 112.187 45.749 112.187 45.749 146.444V165.707Z" fill="#4BB3FD"/>
<path fill-rule="evenodd" clip-rule="evenodd" d="M45.749 165.707H108.867V146.444C108.867 131.32 93.9571 122.884 77.3078 121.107C60.6587 122.884 45.749 131.32 45.749 146.444V165.707Z" fill="#74C3FC"/>
<path fill-rule="evenodd" clip-rule="evenodd" d="M84.0046 123.702C95.7893 123.702 105.407 114.085 105.407 102.3C105.407 90.5158 95.7893 80.8889 84.0046 80.8889C72.22 80.8889 62.5935 90.5063 62.5935 102.3C62.5935 114.095 72.2109 123.702 84.0046 123.702Z" fill="#F6B4A8"/>
<path fill-rule="evenodd" clip-rule="evenodd" d="M79.6704 123.265C69.9228 121.266 62.5935 112.634 62.5935 102.3C62.5935 91.9667 69.9228 83.3354 79.6704 81.3354C89.4181 83.335 96.7474 91.9575 96.7474 102.3C96.7474 112.643 89.4181 121.265 79.6704 123.265Z" fill="#F9C9C0"/>
<path fill-rule="evenodd" clip-rule="evenodd" d="M4.76807 76.3591V79.1124C4.76807 79.9869 5.33539 80.7216 6.18196 80.9542L9.64204 81.8749C10.0628 83.3826 10.6623 84.8346 11.4277 86.1999L9.64204 89.3066C9.20464 90.06 9.32572 90.981 9.93964 91.6042L13.846 95.5013C14.4599 96.1152 15.3806 96.236 16.134 95.8081L19.2407 94.0129C20.6068 94.7768 22.0586 95.3762 23.5657 95.7986L24.4956 99.2678C24.7191 100.105 25.4537 100.672 26.3278 100.672H31.8436C32.7181 100.672 33.4528 100.105 33.6851 99.2678L34.6061 95.7986C36.1137 95.3776 37.5657 94.7781 38.9311 94.0129L42.0378 95.8081C42.7912 96.236 43.7122 96.1152 44.3354 95.5013L48.2325 91.6042C48.8464 90.981 48.9672 90.06 48.5301 89.3066L46.7441 86.1999C47.5096 84.8346 48.1092 83.3826 48.5301 81.8749L51.9994 80.9542C52.8364 80.7219 53.4037 79.9869 53.4037 79.1124V73.597C53.4037 72.7225 52.8364 71.9879 51.9994 71.7647L48.5301 70.8348C48.1058 69.3283 47.5064 67.8767 46.7441 66.5098L48.5301 63.4031C48.9672 62.6497 48.8464 61.729 48.2325 61.1151L44.3354 57.2084C43.7122 56.5945 42.7912 56.4734 42.0378 56.9108L38.9311 58.706C37.5661 57.9376 36.1141 57.3349 34.6061 56.9108L33.6851 53.4508C33.4528 52.6042 32.7178 52.0369 31.8436 52.0369H26.3278C25.4534 52.0369 24.7187 52.6042 24.4956 53.4508L23.5657 56.9108C22.0614 57.3414 20.6105 57.9405 19.2407 58.6968L16.134 56.9108C15.3806 56.4738 14.4599 56.5945 13.846 57.2084L9.93964 61.1151C9.32572 61.729 9.20464 62.6497 9.64204 63.4031L11.4277 66.5098C10.6654 67.8767 10.0661 69.3283 9.64204 70.8348L6.18196 71.7647C5.33539 71.9879 4.76807 72.7228 4.76807 73.597V76.3595V76.3591Z" fill="#08A88A"/>
<path fill-rule="evenodd" clip-rule="evenodd" d="M18.6501 75.378C18.6501 80.9401 23.1612 85.442 28.7233 85.442C34.2853 85.442 38.7872 80.9401 38.7872 75.378C38.7872 69.816 34.2761 65.3049 28.7233 65.3049C23.1704 65.3049 18.6501 69.816 18.6501 75.378Z" fill="#E1DAE7"/>
<path fill-rule="evenodd" clip-rule="evenodd" d="M18.6501 75.378C18.6501 80.168 21.9987 84.1862 26.491 85.2001C30.9742 84.1862 34.3319 80.1683 34.3319 75.378C34.3319 70.5877 30.9834 66.5698 26.491 65.5559C21.9987 66.5698 18.6501 70.5785 18.6501 75.378Z" fill="#EBE6EF"/>
<path fill-rule="evenodd" clip-rule="evenodd" d="M138.919 100.672C152.313 100.672 163.233 89.7527 163.233 76.359C163.233 62.9652 152.313 52.0364 138.919 52.0364C125.525 52.0364 114.606 62.9652 114.606 76.359C114.606 89.7527 125.525 100.672 138.919 100.672Z" fill="#08A88A"/>
<path fill-rule="evenodd" clip-rule="evenodd" d="M155.429 76.3591C155.429 67.2346 148.034 59.8403 138.919 59.8403C129.804 59.8403 122.409 67.2346 122.409 76.3591C122.409 85.4836 129.795 92.8687 138.919 92.8687C148.044 92.8687 155.429 85.4744 155.429 76.3591Z" fill="#E1DAE7"/>
<path fill-rule="evenodd" clip-rule="evenodd" d="M136.826 59.9705C128.697 61.0027 122.409 67.9416 122.409 76.359C122.409 84.7764 128.697 91.7061 136.826 92.7383C144.956 91.7061 151.252 84.7672 151.252 76.359C151.252 67.9508 144.956 61.0027 136.826 59.9705Z" fill="#EBE6EF"/>
<path fill-rule="evenodd" clip-rule="evenodd" d="M122.251 128.511C132.529 128.511 140.854 136.836 140.854 147.104C140.854 157.373 132.529 165.707 122.251 165.707C111.973 165.707 103.658 157.382 103.658 147.104C103.658 136.826 111.982 128.511 122.251 128.511Z" fill="#FFB122"/>
<path fill-rule="evenodd" clip-rule="evenodd" d="M119.005 165.418C110.281 163.883 103.658 156.266 103.658 147.104C103.658 137.942 110.281 130.325 119.005 128.79C127.73 130.325 134.352 137.942 134.352 147.104C134.352 156.266 127.73 163.883 119.005 165.418Z" fill="#FFC738"/>
<path fill-rule="evenodd" clip-rule="evenodd" d="M78.2008 61.7936H89.8085C91.3806 61.7936 92.6734 60.5008 92.6734 58.9196V52.9762C92.6734 52.9762 92.6642 52.967 92.6547 52.967H75.3451C75.3359 52.967 75.3264 52.9762 75.3264 52.9762V58.9196C75.3264 60.5008 76.6192 61.7936 78.2005 61.7936H78.2008Z" fill="#86808F"/>
<path fill-rule="evenodd" clip-rule="evenodd" d="M78.2008 61.7936H85.958C87.53 61.7936 88.8229 60.5008 88.8229 58.9196V52.9762C88.8229 52.9762 88.8137 52.967 88.8041 52.967H75.3451C75.3359 52.967 75.3264 52.9762 75.3264 52.9762V58.9196C75.3264 60.5008 76.6192 61.7936 78.2005 61.7936H78.2008Z" fill="#9992A3"/>
<path fill-rule="evenodd" clip-rule="evenodd" d="M80.8423 68.0902H87.1577C88.7668 68.0902 90.0875 66.7695 90.0875 65.1603V61.7935H77.9216V65.1603C77.9216 66.7695 79.2331 68.0902 80.8423 68.0902Z" fill="#7C7685"/>
<path fill-rule="evenodd" clip-rule="evenodd" d="M80.8423 68.0902H83.3071C84.9163 68.0902 86.237 66.7695 86.237 65.1603V61.7935H77.9216V65.1603C77.9216 66.7695 79.2331 68.0902 80.8423 68.0902Z" fill="#86808F"/>
<path d="M38.8083 45.844C43.66 39.038 50.0984 33.3263 57.4281 29.3262C57.885 29.0894 58.4164 29.041 58.9086 29.1914C59.4007 29.3418 59.8143 29.679 60.0608 30.1307C60.3073 30.5824 60.3671 31.1127 60.2273 31.6079C60.0874 32.1032 59.7592 32.5239 59.3128 32.78C52.5026 36.4964 46.5202 41.8038 42.0118 48.1281C41.8298 48.3837 41.5893 48.592 41.3103 48.7356C41.0313 48.8793 40.722 48.954 40.4083 48.9536C40.0471 48.9533 39.693 48.8535 39.3848 48.6653C39.0766 48.4771 38.8261 48.2076 38.6608 47.8865C38.4955 47.5654 38.4218 47.205 38.4478 46.8448C38.4738 46.4845 38.5984 46.1384 38.808 45.8443L38.8083 45.844ZM49.8878 121.84C50.2328 122.11 50.6583 122.256 51.0963 122.256C51.5061 122.256 51.9058 122.128 52.2395 121.89C52.5732 121.652 52.8243 121.316 52.9577 120.929C53.091 120.541 53.1 120.122 52.9834 119.729C52.8667 119.336 52.6303 118.989 52.3071 118.737C47.4051 114.921 43.2341 110.249 39.9958 104.948C39.7207 104.509 39.2835 104.196 38.7793 104.078C38.275 103.959 37.7443 104.044 37.3024 104.314C36.8604 104.585 36.5429 105.018 36.4187 105.521C36.2946 106.024 36.3737 106.556 36.6391 107.001C40.1353 112.718 44.5928 117.711 49.8878 121.84ZM107.902 30.112C107.652 30.5702 107.595 31.1087 107.742 31.6091C107.89 32.1096 108.23 32.531 108.688 32.7807C114.887 36.1577 120.249 40.7065 124.627 46.3011C124.811 46.5367 125.046 46.7271 125.315 46.858C125.584 46.9888 125.879 47.0566 126.177 47.0561C126.546 47.0557 126.907 46.9517 127.219 46.7562C127.532 46.5606 127.783 46.2812 127.944 45.9498C128.106 45.6185 128.171 45.2485 128.132 44.882C128.093 44.5155 127.952 44.1672 127.725 43.8769C123.015 37.8568 117.243 32.9611 110.57 29.3258C110.112 29.0764 109.574 29.019 109.073 29.1665C108.573 29.3139 108.151 29.654 107.902 30.112H107.902ZM116.914 122.256C117.352 122.256 117.778 122.11 118.123 121.839C123.143 117.927 127.454 113.182 130.868 107.811C131.007 107.593 131.101 107.35 131.146 107.096C131.191 106.841 131.185 106.58 131.129 106.328C131.073 106.076 130.967 105.837 130.819 105.626C130.671 105.414 130.482 105.234 130.264 105.095C130.046 104.957 129.803 104.862 129.549 104.818C129.294 104.773 129.034 104.779 128.781 104.835C128.529 104.891 128.291 104.996 128.079 105.145C127.868 105.293 127.687 105.482 127.549 105.7C124.375 110.691 120.368 115.102 115.702 118.738C115.379 118.99 115.143 119.336 115.027 119.729C114.91 120.122 114.919 120.541 115.053 120.929C115.186 121.316 115.437 121.652 115.771 121.89C116.104 122.128 116.504 122.256 116.914 122.256ZM94.6332 52.1515C94.6309 52.1771 94.626 52.2017 94.6227 52.2273L94.6404 57.9278C94.6404 59.7893 93.5901 61.4043 92.0548 62.2164V64.175C92.0548 66.8752 89.8619 69.072 87.1671 69.072H80.8424C78.1472 69.072 75.9547 66.8755 75.9547 64.175V62.2187C74.4138 61.4079 73.3596 59.7929 73.3596 57.9341V52.0849C72.9691 47.7291 71.188 45.0781 69.301 42.2743C67.1488 39.0761 64.9235 35.7689 64.9235 30.2075C64.9235 19.6862 73.4833 11.1264 84.0046 11.1264C94.5259 11.1264 103.086 19.6862 103.086 30.2075C103.086 35.7712 100.858 39.079 98.7043 42.2783C96.807 45.0962 95.0151 47.7576 94.6329 52.1522L94.6332 52.1515ZM72.5652 40.0775C74.3311 42.7019 76.3032 45.6389 77.0562 50.0305L79.2008 50.0282V36.123C76.7484 35.5205 74.737 34.4735 73.4813 33.0898C72.3079 31.7973 71.7635 30.2216 71.9063 28.5341C72.1347 25.8284 73.7238 23.6493 75.9544 22.9832C77.2711 22.5914 78.5285 22.7781 79.5933 23.5226C81.4721 24.8361 82.5441 27.7049 83.0058 32.7301C83.3339 32.7515 83.6673 32.7646 84.0046 32.7692C84.3378 32.7647 84.6709 32.7517 85.0034 32.7301C85.4654 27.702 86.538 24.8325 88.4169 23.52C89.4803 22.7781 90.7348 22.5924 92.0459 22.9835C94.2477 23.6411 95.8781 25.872 96.1029 28.5347C96.2459 30.221 95.7013 31.7956 94.5282 33.0878C93.2721 34.4722 91.2604 35.5195 88.8083 36.1226V50.0184L90.9477 50.0161C91.706 45.6343 93.6761 42.7015 95.4407 40.0808C97.4318 37.1234 99.1515 34.5696 99.1515 30.2072C99.1515 21.8551 92.3567 15.0603 84.0046 15.0603C75.6525 15.0603 68.8577 21.8551 68.8577 30.2072C68.8577 34.568 70.5757 37.1208 72.5652 40.0775ZM89.8088 58.8407C90.2951 58.8407 90.7062 58.4253 90.7062 57.9338L90.6937 53.9503L77.2938 53.9648V57.9338C77.2938 58.4253 77.7095 58.8407 78.201 58.8407H89.8088ZM84.8744 36.6781C84.5952 36.6916 84.3133 36.7001 84.0292 36.7037H83.981C83.699 36.7002 83.4171 36.6917 83.1354 36.6781V50.0243L84.8748 50.0223L84.8744 36.6781ZM91.6151 30.4434C92.0528 29.9611 92.2333 29.46 92.1828 28.8661C92.0837 27.697 91.4727 26.9181 90.9198 26.753C90.8375 26.7287 90.7853 26.7199 90.7495 26.7199C90.7062 26.7199 90.6878 26.7327 90.6698 26.7451C90.5441 26.8331 89.583 27.6373 89.0452 31.961C90.1671 31.5692 91.0629 31.0515 91.6148 30.4434H91.6151ZM77.3387 26.7468C77.3194 26.7333 77.2997 26.7195 77.2537 26.7195C77.2167 26.7195 77.1628 26.7284 77.0785 26.7537C76.5322 26.9168 75.9255 27.6951 75.8267 28.8661C75.7765 29.4614 75.9567 29.9637 76.3947 30.4461C76.946 31.0534 77.8417 31.5705 78.9643 31.962C78.4258 27.6403 77.4644 26.8347 77.3387 26.7468ZM88.1206 64.1747V62.7746H79.8889V64.1747C79.8889 64.6964 80.3253 65.1374 80.8421 65.1374H87.1667C87.6835 65.1374 88.1203 64.6964 88.1203 64.1747H88.1206ZM84.0046 9.44147C84.2629 9.44151 84.5187 9.39066 84.7574 9.29182C84.9961 9.19298 85.213 9.04808 85.3956 8.86541C85.5783 8.68274 85.7232 8.46587 85.822 8.22719C85.9209 7.98851 85.9717 7.7327 85.9717 7.47436V3.27961C85.9717 2.7579 85.7644 2.25756 85.3955 1.88865C85.0266 1.51975 84.5263 1.3125 84.0046 1.3125C83.4829 1.3125 82.9825 1.51975 82.6136 1.88865C82.2447 2.25756 82.0375 2.7579 82.0375 3.27961V7.47436C82.0374 7.7327 82.0883 7.98851 82.1871 8.22719C82.286 8.46587 82.4309 8.68274 82.6135 8.86541C82.7962 9.04808 83.0131 9.19298 83.2517 9.29182C83.4904 9.39066 83.7462 9.44151 84.0046 9.44147ZM70.9357 11.51C71.0649 11.7337 71.2369 11.9298 71.4419 12.0871C71.647 12.2443 71.881 12.3596 72.1306 12.4263C72.3802 12.493 72.6406 12.5098 72.8967 12.4759C73.1528 12.4419 73.3998 12.3577 73.6234 12.2282C73.847 12.0989 74.043 11.9268 74.2001 11.7218C74.3573 11.5167 74.4725 11.2827 74.5392 11.0332C74.6059 10.7836 74.6227 10.5233 74.5888 10.2672C74.555 10.0111 74.4709 9.7642 74.3416 9.54056L72.2393 5.90395C72.11 5.68032 71.9379 5.48434 71.7329 5.32721C71.5278 5.17008 71.2938 5.05488 71.0443 4.98819C70.7947 4.92149 70.5344 4.9046 70.2783 4.93849C70.0222 4.97238 69.7753 5.05637 69.5517 5.18569C69.328 5.315 69.132 5.4871 68.9749 5.69215C68.8178 5.8972 68.7026 6.13119 68.6359 6.38077C68.5692 6.63034 68.5523 6.89061 68.5862 7.14671C68.6201 7.4028 68.7041 7.64972 68.8334 7.87336L70.9357 11.51ZM59.7036 18.4518L63.3314 20.5446C63.5551 20.6738 63.8021 20.7576 64.0583 20.7913C64.3145 20.825 64.5747 20.8079 64.8243 20.7409C65.0738 20.674 65.3077 20.5585 65.5126 20.4011C65.7175 20.2437 65.8894 20.0475 66.0184 19.8237C66.2791 19.3717 66.3496 18.8348 66.2144 18.3309C66.0792 17.827 65.7494 17.3974 65.2975 17.1367L61.6698 15.0439C61.2184 14.7928 60.6865 14.7292 60.1887 14.867C59.6909 15.0047 59.2672 15.3326 59.0091 15.78C58.751 16.2274 58.6792 16.7583 58.8091 17.2581C58.9391 17.758 59.2604 18.1867 59.7036 18.4518ZM94.3897 12.2302C94.6136 12.3592 94.8607 12.4427 95.1169 12.4762C95.3731 12.5096 95.6333 12.4922 95.8828 12.425C96.1322 12.3577 96.366 12.242 96.5707 12.0844C96.7754 11.9268 96.947 11.7303 97.0758 11.5064L99.1685 7.86975C99.4213 7.41798 99.4858 6.88481 99.3481 6.38581C99.2103 5.88681 98.8815 5.46219 98.4329 5.204C97.9842 4.9458 97.4518 4.87482 96.9512 5.00646C96.4506 5.1381 96.022 5.46174 95.7583 5.90723L93.6656 9.54384C93.4054 9.99607 93.3354 10.5331 93.4712 11.0369C93.6069 11.5407 93.9372 11.9699 94.3894 12.2302H94.3897ZM103.688 20.808C104.032 20.808 104.37 20.7175 104.667 20.5455L108.304 18.4528C108.749 18.1891 109.073 17.7605 109.205 17.2599C109.336 16.7593 109.265 16.2269 109.007 15.7783C108.749 15.3296 108.324 15.0008 107.825 14.8631C107.326 14.7253 106.793 14.7898 106.341 15.0426L102.705 17.1353C102.329 17.3516 102.035 17.6858 101.869 18.0862C101.703 18.4865 101.673 18.9306 101.785 19.3493C101.898 19.7681 102.145 20.1381 102.489 20.4019C102.833 20.6657 103.254 20.8084 103.688 20.808H103.688ZM38.8861 95.2727C38.0252 95.6972 37.1371 96.0639 36.2276 96.3706L35.5865 98.7866C35.1081 100.51 33.6062 101.653 31.8435 101.653H26.3278C24.5523 101.653 23.0521 100.502 22.5947 98.7892L21.9463 96.3706C21.0362 96.0637 20.1473 95.6969 19.2855 95.2727L17.1179 96.5252C15.5698 97.4042 13.7008 97.1519 12.4546 95.9057L8.54994 92.0102C7.29421 90.7354 7.05369 88.8605 7.94029 87.3328L9.1829 85.1711C8.7579 84.3092 8.39057 83.4201 8.08335 82.5097L5.67557 81.8688C3.94996 81.3953 2.80054 79.8929 2.80054 78.1262V72.6105C2.80054 70.8307 3.95751 69.3299 5.68016 68.8761L8.08368 68.2297C8.392 67.3193 8.75952 66.43 9.18388 65.5676L7.93602 63.397C7.04877 61.8673 7.29322 59.9921 8.54798 58.7373L12.4543 54.831C13.0566 54.2299 13.8405 53.8444 14.6843 53.7344C15.5281 53.6244 16.3846 53.796 17.1209 54.2227L19.2855 55.4735C20.1477 55.0496 21.0363 54.6815 21.9456 54.3716L22.5953 51.9537C23.0475 50.2402 24.5483 49.0836 26.3274 49.0836H31.8432C33.6098 49.0836 35.1123 50.233 35.5819 51.9438L36.227 54.3677C37.1371 54.6768 38.0256 55.0461 38.8867 55.4731L41.0533 54.2213C42.5778 53.3377 44.4527 53.5772 45.7153 54.8208L49.6246 58.7393C50.8777 59.9924 51.1222 61.8676 50.2317 63.4039L48.9874 65.5682C49.4116 66.4304 49.779 67.3193 50.0873 68.2293L52.5088 68.8787C54.2197 69.3344 55.3711 70.8346 55.3711 72.6111V78.1269C55.3711 79.8899 54.2276 81.3917 52.5253 81.8642L50.0879 82.5113C49.781 83.4216 49.4138 84.3105 48.9887 85.1721L50.2353 87.3403C51.1176 88.8615 50.8774 90.7364 49.6338 91.9987L45.7262 95.9063C44.4619 97.1516 42.5936 97.4 41.0668 96.5331L38.8861 95.2727ZM37.9686 91.3113C38.2663 91.1444 38.6022 91.0577 38.9435 91.0598C39.2847 91.062 39.6196 91.1528 39.9151 91.3234L42.9755 93.092L46.8034 89.2644L45.0388 86.1945C44.869 85.8993 44.7788 85.565 44.777 85.2245C44.7751 84.8839 44.8617 84.5487 45.0283 84.2517C45.7169 83.023 46.2563 81.7164 46.6351 80.3598C46.7273 80.0299 46.904 79.7297 47.1478 79.4891C47.3916 79.2484 47.694 79.0755 48.025 78.9876L51.4362 78.0819V72.6643L48.0201 71.7485C47.6906 71.6601 47.3897 71.4875 47.147 71.2478C46.9043 71.008 46.7281 70.7093 46.6357 70.3808C46.2528 69.0224 45.7123 67.7133 45.0253 66.4804C44.86 66.1838 44.7744 65.8494 44.7767 65.5099C44.779 65.1704 44.8691 64.8372 45.0384 64.5428L46.7998 61.4785L42.9814 57.6509L39.9144 59.4228C39.6189 59.5935 39.2841 59.6844 38.9428 59.6865C38.6016 59.6886 38.2656 59.6019 37.968 59.4349C36.7396 58.7434 35.433 58.2009 34.0761 57.8189C33.7464 57.7268 33.4464 57.5502 33.2058 57.3067C32.9652 57.0632 32.7923 56.7611 32.7042 56.4303L31.796 53.0178H26.3832L25.4645 56.4352C25.3764 56.7626 25.2053 57.0616 24.9676 57.3034C24.7299 57.5451 24.4338 57.7214 24.108 57.815C22.7236 58.213 21.4092 58.758 20.202 59.4352C19.9043 59.602 19.5684 59.6886 19.2271 59.6864C18.8859 59.6842 18.5511 59.5934 18.2556 59.4228L15.1948 57.6539L11.3705 61.4782L13.1319 64.5425C13.3012 64.8369 13.3914 65.17 13.3937 65.5096C13.396 65.8491 13.3103 66.1835 13.145 66.4801C12.4578 67.7129 11.9173 69.022 11.5346 70.3805C11.4423 70.7087 11.2663 71.0073 11.0238 71.247C10.7813 71.4867 10.4808 71.6593 10.1515 71.7478L6.7341 72.6666V78.0787L10.1466 78.9876C10.4774 79.0756 10.7795 79.2485 11.0231 79.4891C11.2666 79.7297 11.4432 80.0297 11.5352 80.3595C11.9141 81.7161 12.4535 83.0226 13.1421 84.2513C13.3086 84.5484 13.3952 84.8836 13.3933 85.2241C13.3915 85.5647 13.3013 85.8989 13.1316 86.1942L11.3669 89.2641L15.2004 93.0884L18.2556 91.3231C18.5511 91.1526 18.8859 91.0618 19.2271 91.0596C19.5683 91.0574 19.9043 91.1439 20.202 91.3106C21.4323 91.9986 22.7398 92.5383 24.0972 92.9184C24.4256 93.0108 24.7243 93.187 24.9641 93.4297C25.2039 93.6724 25.3764 93.9733 25.4648 94.3028L26.3806 97.7189H31.7983L32.7039 94.3077C32.7918 93.9766 32.9647 93.6743 33.2054 93.4305C33.446 93.1867 33.7462 93.01 34.0761 92.9178C35.4327 92.5389 36.7392 91.9996 37.968 91.3113H37.9686ZM39.5217 75.3733C39.5217 81.1302 34.8419 85.8136 29.0902 85.8136C23.3385 85.8136 18.65 81.1302 18.65 75.3733C18.65 69.6163 23.3333 64.933 29.0902 64.933C34.8472 64.933 39.5217 69.6163 39.5217 75.3733ZM35.5874 75.3733C35.5874 71.7855 32.6727 68.8672 29.0902 68.8672C25.5078 68.8672 22.5842 71.7859 22.5842 75.3733C22.5842 78.9607 25.5028 81.8793 29.0902 81.8793C32.6776 81.8793 35.5874 78.9607 35.5874 75.3733ZM165.199 75.3733C165.199 89.8643 153.41 101.654 138.919 101.654C124.428 101.654 112.638 89.8643 112.638 75.3733C112.638 60.8823 124.428 49.0836 138.919 49.0836C153.41 49.0836 165.199 60.877 165.199 75.3733ZM161.265 75.3733C161.265 63.0466 151.24 53.0178 138.919 53.0178C126.597 53.0178 116.572 63.0463 116.572 75.3733C116.572 87.7003 126.597 97.7196 138.919 97.7196C151.24 97.7196 161.265 87.695 161.265 75.3733ZM157.396 75.3733C157.396 85.5612 149.107 93.85 138.919 93.85C128.73 93.85 120.442 85.5612 120.442 75.3733C120.442 65.1853 128.731 56.887 138.919 56.887C149.107 56.887 157.396 65.1797 157.396 75.3733ZM153.325 77.3404H152.275C151.754 77.3404 151.253 77.1331 150.884 76.7642C150.515 76.3953 150.308 75.895 150.308 75.3733C150.308 74.8516 150.515 74.3512 150.884 73.9823C151.253 73.6134 151.754 73.4062 152.275 73.4062H153.325C152.449 66.9539 147.334 61.8348 140.886 60.9581V62.0169C140.886 62.5386 140.678 63.039 140.31 63.4079C139.941 63.7768 139.44 63.984 138.919 63.984C138.397 63.984 137.897 63.7768 137.528 63.4079C137.159 63.039 136.951 62.5386 136.951 62.0169V60.9581C130.504 61.8348 125.389 66.9539 124.513 73.4062H125.562C126.084 73.4062 126.584 73.6134 126.953 73.9823C127.322 74.3512 127.529 74.8516 127.529 75.3733C127.529 75.895 127.322 76.3953 126.953 76.7642C126.584 77.1331 126.084 77.3404 125.562 77.3404H124.513C125.389 83.7877 130.504 88.9025 136.951 89.7789V88.7296C136.951 88.2079 137.159 87.7075 137.528 87.3386C137.897 86.9697 138.397 86.7625 138.919 86.7625C139.44 86.7625 139.941 86.9697 140.31 87.3386C140.678 87.7075 140.886 88.2079 140.886 88.7296V89.7789C147.333 88.9028 152.448 83.7877 153.325 77.3404ZM144.244 76.1706L140.886 74.236V69.3276C140.886 68.8059 140.679 68.3055 140.31 67.9366C139.941 67.5677 139.441 67.3605 138.919 67.3605C138.397 67.3605 137.897 67.5677 137.528 67.9366C137.159 68.3055 136.952 68.8059 136.952 69.3276V75.3733C136.952 75.7189 137.043 76.0585 137.216 76.3577C137.389 76.657 137.638 76.9054 137.937 77.0779L142.281 79.5798C142.505 79.7089 142.752 79.7926 143.008 79.8261C143.264 79.8596 143.524 79.8423 143.774 79.7752C144.023 79.708 144.257 79.5924 144.462 79.4348C144.667 79.2773 144.838 79.0809 144.967 78.857C145.228 78.4048 145.298 77.8678 145.162 77.364C145.027 76.8601 144.696 76.4308 144.244 76.1703V76.1706ZM142.821 146.118C142.821 157.46 133.593 166.688 122.251 166.688H45.7488C45.4905 166.688 45.2347 166.637 44.996 166.538C44.7573 166.439 44.5404 166.294 44.3578 166.112C44.1751 165.929 44.0302 165.712 43.9314 165.474C43.8325 165.235 43.7817 164.979 43.7817 164.721V145.458C43.7817 132.973 53.4456 123.305 69.3341 119.491C64.028 115.204 60.6263 108.65 60.6263 101.315C60.6263 88.4238 71.1139 77.9362 84.0046 77.9362C96.8953 77.9362 107.374 88.4238 107.374 101.315C107.374 108.652 103.972 115.206 98.6662 119.494C105.082 121.041 110.599 123.573 114.862 126.937C117.219 126.025 119.724 125.557 122.251 125.558C133.593 125.558 142.821 134.781 142.821 146.118ZM84.0046 120.749C94.7211 120.749 103.439 112.031 103.439 101.315C103.439 90.5986 94.7211 81.8705 84.0046 81.8705C73.288 81.8705 64.5606 90.593 64.5606 101.315C64.5606 112.037 73.2831 120.749 84.0046 120.749ZM110.178 162.754C105.04 159.011 101.691 152.95 101.691 146.119C101.691 138.952 105.379 132.634 110.954 128.952C106.47 125.881 100.506 123.637 93.7971 122.525C90.8165 123.907 87.5001 124.684 84.0043 124.684C80.5084 124.684 77.1822 123.905 74.1976 122.521C61.2865 124.659 47.7156 131.764 47.7156 145.458V162.754H110.178H110.178ZM138.886 146.119C138.886 136.951 131.424 129.493 122.251 129.493C113.078 129.493 105.625 136.951 105.625 146.119C105.625 155.286 113.084 162.754 122.251 162.754C131.419 162.754 138.886 155.291 138.886 146.119ZM129.37 138.441L118.607 149.212L115.444 143.739C115.18 143.293 114.75 142.97 114.249 142.838C113.748 142.707 113.215 142.779 112.766 143.038C112.318 143.298 111.99 143.723 111.853 144.223C111.717 144.723 111.783 145.257 112.038 145.708L116.484 153.4C116.635 153.661 116.844 153.884 117.095 154.052C117.345 154.219 117.632 154.327 117.931 154.366C118.23 154.406 118.534 154.375 118.82 154.278C119.106 154.181 119.365 154.019 119.578 153.806L132.153 141.221C132.336 141.038 132.481 140.821 132.579 140.583C132.678 140.344 132.729 140.088 132.729 139.83C132.729 139.571 132.678 139.316 132.579 139.077C132.48 138.838 132.335 138.621 132.152 138.439C131.969 138.256 131.752 138.111 131.514 138.013C131.275 137.914 131.019 137.863 130.761 137.863C130.502 137.863 130.246 137.914 130.008 138.013C129.769 138.112 129.552 138.257 129.37 138.44L129.37 138.441Z" fill="black"/>
</svg>
