<svg width="167" height="167" viewBox="0 0 167 167" fill="none" xmlns="http://www.w3.org/2000/svg">
<g clip-path="url(#clip0_114_42)">
<path d="M114.11 143.626V128.762C114.11 111.205 99.8785 96.9736 82.3226 96.9736H74.6251C57.0689 96.9736 42.8372 111.206 42.8372 128.762V143.626C37.2789 143.626 32.7729 148.132 32.7729 153.69C32.7729 159.249 37.2789 163.755 42.8372 163.755H114.111C119.669 163.755 124.175 159.249 124.175 153.69C124.174 148.132 119.669 143.626 114.11 143.626Z" fill="#C6865C"/>
<path d="M87.4732 97.3909C72.3654 99.8481 60.8345 112.96 60.8345 128.762V143.624C55.2769 143.624 50.7686 148.132 50.7686 153.69C50.7686 156.469 51.894 158.984 53.7174 160.807C55.5405 162.627 58.0554 163.753 60.8345 163.753H42.8386C40.0598 163.753 37.5449 162.628 35.7215 160.807C33.8981 158.984 32.7727 156.469 32.7727 153.69C32.7727 148.132 37.2807 143.624 42.8386 143.624V128.762C42.8386 111.206 57.0697 96.9724 74.6255 96.9724H82.3249C84.0782 96.9724 85.7953 97.115 87.4732 97.3909Z" fill="#AA7A63"/>
<path d="M86.6071 68.9836C82.1428 68.8248 78.4739 72.3969 78.4739 76.8256C78.4739 72.3969 74.8049 68.8251 70.3406 68.9836C66.0884 69.1346 62.7795 72.7586 62.7795 77.0138V81.2794C62.7795 89.9469 69.806 96.9734 78.4735 96.9734C87.1411 96.9734 94.1675 89.9469 94.1675 81.2794V77.0138C94.1679 72.7589 90.8593 69.135 86.6071 68.9836Z" fill="#C6865C"/>
<path d="M82.547 96.4383C81.2182 96.7941 79.8485 96.9737 78.4729 96.9723C69.8057 96.9723 62.7795 89.9461 62.7795 81.2789V77.0137C62.7795 72.7575 66.0861 69.1323 70.3393 68.9835C71.8831 68.9243 73.4097 69.3245 74.7259 70.1333C72.4354 71.5532 70.9278 74.1409 70.9278 77.0137V81.2789C70.9278 88.5357 75.8546 94.6456 82.547 96.4383Z" fill="#AA7A63"/>
<path d="M40.0351 149.514H9.62472C5.6925 149.514 2.50464 152.702 2.50464 156.634C2.50464 160.566 5.6925 163.754 9.62472 163.754H40.0348C43.967 163.754 47.1549 160.566 47.1549 156.634C47.1552 152.702 43.9673 149.514 40.0351 149.514Z" fill="#F6E266"/>
<path d="M19.1729 161.669C19.8334 162.33 20.6182 162.855 21.4822 163.213C22.3462 163.57 23.2723 163.754 24.2073 163.752H9.62596C8.69093 163.754 7.76484 163.57 6.90087 163.213C6.0369 162.855 5.25209 162.33 4.59153 161.669C3.92868 161.009 3.40302 160.224 3.04489 159.36C2.68676 158.496 2.50323 157.57 2.50489 156.634C2.50489 152.702 5.69373 149.513 9.62596 149.513H24.2073C20.2751 149.513 17.0863 152.702 17.0863 156.634C17.0847 157.57 17.2682 158.496 17.6263 159.36C17.9845 160.224 18.5101 161.009 19.1729 161.669Z" fill="#FFD064"/>
<path d="M40.0351 135.274H9.62472C5.6925 135.274 2.50464 138.462 2.50464 142.394C2.50464 146.326 5.6925 149.514 9.62472 149.514H40.0348C43.967 149.514 47.1549 146.326 47.1549 142.394C47.1552 138.461 43.9673 135.274 40.0351 135.274Z" fill="#F6E266"/>
<path d="M19.1729 147.428C19.8334 148.09 20.6182 148.615 21.4822 148.972C22.3462 149.33 23.2723 149.513 24.2073 149.512H9.62596C8.69093 149.513 7.76484 149.33 6.90087 148.972C6.0369 148.615 5.25209 148.09 4.59153 147.428C3.92868 146.769 3.40302 145.984 3.04489 145.12C2.68676 144.256 2.50323 143.329 2.50489 142.394C2.50489 138.462 5.69373 135.273 9.62596 135.273H24.2073C20.2751 135.273 17.0863 138.462 17.0863 142.394C17.0847 143.329 17.2682 144.256 17.6263 145.12C17.9845 145.984 18.5101 146.768 19.1729 147.428Z" fill="#FFD064"/>
<path d="M59.0995 149.514H28.6894C24.7572 149.514 21.5693 152.702 21.5693 156.634C21.5693 160.566 24.7572 163.754 28.6894 163.754H59.0995C63.0317 163.754 66.2196 160.566 66.2196 156.634C66.2196 152.702 63.0317 149.514 59.0995 149.514Z" fill="#F6E266"/>
<path d="M38.2373 161.669C38.8979 162.33 39.6827 162.855 40.5467 163.213C41.4106 163.57 42.3367 163.754 43.2718 163.752H28.6904C27.7554 163.754 26.8293 163.57 25.9653 163.213C25.1014 162.855 24.3165 162.33 23.656 161.669C22.9931 161.009 22.4675 160.224 22.1093 159.36C21.7512 158.496 21.5677 157.57 21.5693 156.634C21.5693 152.702 24.7582 149.513 28.6904 149.513H43.2718C39.3395 149.513 36.1507 152.702 36.1507 156.634C36.1491 157.57 36.3327 158.496 36.6908 159.36C37.0489 160.224 37.5745 161.009 38.2373 161.669Z" fill="#FFD064"/>
<path d="M59.0995 135.274H28.6894C24.7572 135.274 21.5693 138.462 21.5693 142.394C21.5693 146.326 24.7572 149.514 28.6894 149.514H59.0995C63.0317 149.514 66.2196 146.326 66.2196 142.394C66.2196 138.461 63.0317 135.274 59.0995 135.274Z" fill="#F6E266"/>
<path d="M38.2373 147.428C38.8979 148.09 39.6827 148.615 40.5467 148.972C41.4106 149.33 42.3367 149.513 43.2718 149.512H28.6904C27.7554 149.513 26.8293 149.33 25.9653 148.972C25.1014 148.615 24.3165 148.09 23.656 147.428C22.9931 146.769 22.4675 145.984 22.1093 145.12C21.7512 144.256 21.5677 143.329 21.5693 142.394C21.5693 138.462 24.7582 135.273 28.6904 135.273H43.2718C39.3395 135.273 36.1507 138.462 36.1507 142.394C36.1491 143.329 36.3327 144.256 36.6908 145.12C37.0489 145.984 37.5745 146.768 38.2373 147.428Z" fill="#FFD064"/>
<path d="M40.0351 121.033H9.62472C5.6925 121.033 2.50464 124.221 2.50464 128.154C2.50464 132.086 5.6925 135.274 9.62472 135.274H40.0348C43.967 135.274 47.1549 132.086 47.1549 128.154C47.1552 124.221 43.9673 121.033 40.0351 121.033Z" fill="#F6E266"/>
<path d="M19.1729 133.188C19.8334 133.85 20.6182 134.374 21.4822 134.732C22.3462 135.09 23.2723 135.273 24.2073 135.271H9.62596C8.69093 135.273 7.76484 135.09 6.90087 134.732C6.0369 134.374 5.25209 133.85 4.59153 133.188C3.92868 132.528 3.40302 131.743 3.04489 130.879C2.68676 130.015 2.50323 129.089 2.50489 128.154C2.50489 124.221 5.69373 121.032 9.62596 121.032H24.2073C20.2751 121.032 17.0863 124.221 17.0863 128.154C17.0846 129.089 17.2681 130.015 17.6262 130.879C17.9844 131.743 18.51 132.528 19.1729 133.188Z" fill="#FFD064"/>
<path d="M40.0351 106.793H9.62472C5.6925 106.793 2.50464 109.981 2.50464 113.913C2.50464 117.846 5.6925 121.033 9.62472 121.033H40.0348C43.967 121.033 47.1549 117.846 47.1549 113.913C47.1552 109.981 43.9673 106.793 40.0351 106.793Z" fill="#F6E266"/>
<path d="M19.1729 118.948C19.8334 119.61 20.6182 120.134 21.4822 120.492C22.3462 120.849 23.2723 121.033 24.2073 121.031H9.62596C8.69093 121.033 7.76484 120.849 6.90087 120.492C6.0369 120.134 5.25209 119.609 4.59153 118.948C3.92868 118.288 3.40302 117.503 3.04489 116.639C2.68676 115.775 2.50323 114.849 2.50489 113.913C2.50489 109.981 5.69373 106.792 9.62596 106.792H24.2073C20.2751 106.792 17.0863 109.981 17.0863 113.913C17.0846 114.849 17.2681 115.775 17.6262 116.639C17.9844 117.503 18.51 118.288 19.1729 118.948Z" fill="#FFD064"/>
<path d="M125.509 116.102L132.771 108.84L149.595 125.664L142.333 132.926L125.509 116.102Z" fill="#4E5959"/>
<path d="M125.509 116.101L129.139 112.471L145.963 129.295L142.332 132.925L125.509 116.101Z" fill="#454B4B"/>
<path d="M111.589 125.332C128.401 125.332 142.031 111.703 142.031 94.89C142.031 78.0774 128.401 64.448 111.589 64.448C94.7759 64.448 81.1465 78.0774 81.1465 94.89C81.1465 111.703 94.7759 125.332 111.589 125.332Z" fill="#F6E266"/>
<path d="M114.158 125.224C113.304 125.296 112.446 125.332 111.589 125.332C94.7759 125.332 81.1467 111.7 81.1467 94.8896C81.1467 78.0765 94.7759 64.4473 111.589 64.4473C112.454 64.4473 113.311 64.4831 114.158 64.5552C98.5441 65.8577 86.2816 78.9412 86.2816 94.8893C86.2816 110.836 98.5441 123.922 114.158 125.224Z" fill="#FFD064"/>
<path d="M111.589 113.258C121.733 113.258 129.957 105.034 129.957 94.8901C129.957 84.7456 121.733 76.522 111.589 76.522C101.444 76.522 93.2205 84.7456 93.2205 94.8901C93.2205 105.034 101.444 113.258 111.589 113.258Z" fill="#CAEFFA"/>
<path d="M115.249 112.892C114.045 113.135 112.819 113.257 111.589 113.257C101.444 113.257 93.2207 105.033 93.2207 94.8898C93.2207 84.7443 101.444 76.521 111.589 76.521C112.843 76.521 114.067 76.6469 115.249 76.8857C106.858 78.5815 100.54 85.9978 100.54 94.8898C100.54 103.78 106.858 111.196 115.249 112.892Z" fill="#A2D6E3"/>
<path d="M163.165 140.513L157.212 146.466C155.356 148.322 152.348 148.322 150.492 146.466L135.389 131.364C133.534 129.508 133.534 126.5 135.389 124.644L141.343 118.69C143.198 116.835 146.207 116.835 148.062 118.69L163.165 133.793C165.021 135.649 165.021 138.657 163.165 140.513Z" fill="#DD636E"/>
<path d="M161.569 142.109L157.212 146.466C155.355 148.322 152.349 148.322 150.492 146.466L135.389 131.363C133.533 129.507 133.533 126.5 135.389 124.644L139.747 120.286C137.89 122.143 137.89 125.15 139.747 127.006L154.849 142.109C156.706 143.966 159.713 143.966 161.569 142.109Z" fill="#DA4A54"/>
<path d="M59.0995 121.033H28.6894C24.7572 121.033 21.5693 124.221 21.5693 128.154C21.5693 132.086 24.7572 135.274 28.6894 135.274H59.0995C63.0317 135.274 66.2196 132.086 66.2196 128.154C66.2196 124.221 63.0317 121.033 59.0995 121.033Z" fill="#F6E266"/>
<path d="M38.2373 133.188C38.8979 133.85 39.6827 134.374 40.5467 134.732C41.4106 135.09 42.3367 135.273 43.2718 135.271H28.6904C27.7554 135.273 26.8293 135.09 25.9653 134.732C25.1014 134.374 24.3165 133.85 23.656 133.188C22.9931 132.528 22.4675 131.743 22.1093 130.879C21.7512 130.015 21.5677 129.089 21.5693 128.154C21.5693 124.221 24.7582 121.032 28.6904 121.032H43.2718C39.3395 121.032 36.1507 124.221 36.1507 128.154C36.149 129.089 36.3326 130.015 36.6907 130.879C37.0488 131.743 37.5745 132.528 38.2373 133.188Z" fill="#FFD064"/>
<path d="M137.089 3.57584L114.076 11.7495C110.047 13.1808 109.078 18.4374 112.332 21.2113L116.725 24.9553L102.004 42.2258L79.4417 21.3297C78.7508 20.6902 77.9282 20.21 77.0317 19.9227C76.1352 19.6354 75.1866 19.5482 74.2527 19.6671C73.3189 19.7859 72.4224 20.1081 71.6265 20.6108C70.8305 21.1135 70.1545 21.7846 69.6459 22.5768L33.4081 79.0472L13.2277 60.5786C10.6041 58.1775 6.53064 58.3579 4.12923 60.9818C1.72782 63.6053 1.90853 67.6788 4.53207 70.0799L30.3517 93.7088C31.0438 94.3421 31.866 94.8166 32.7607 95.099C33.6554 95.3815 34.601 95.465 35.5314 95.3437C36.4617 95.2225 37.3543 94.8994 38.1468 94.3972C38.9393 93.8949 39.6124 93.2256 40.1191 92.436L76.3321 36.0047L98.1761 56.235C98.813 56.8248 99.5625 57.2797 100.38 57.5724C101.197 57.8651 102.065 57.9897 102.931 57.9385C103.798 57.8874 104.645 57.6616 105.422 57.2747C106.199 56.8879 106.89 56.3479 107.453 55.6874L126.527 33.3097L130.92 37.0547C134.175 39.8286 139.212 38.0392 139.987 33.8336L144.411 9.81586C145.186 5.61159 141.118 2.14452 137.089 3.57584Z" fill="#B3E59F"/>
<path d="M81.8278 127.915C79.5334 127.105 76.9953 126.124 75.5673 125.004C75.0904 124.63 74.8901 123.816 75.0568 122.931C75.2244 122.041 75.823 120.964 76.9999 120.609C79.7249 119.789 81.5228 121.195 81.7189 121.358C82.2182 121.768 82.8594 121.963 83.5024 121.902C84.1455 121.841 84.7382 121.528 85.1514 121.031C85.5645 120.535 85.7644 119.895 85.7076 119.252C85.6508 118.608 85.3418 118.013 84.848 117.597C84.4488 117.265 82.9858 116.157 80.7644 115.68V114.588C80.7644 113.939 80.5067 113.317 80.0479 112.858C79.5891 112.4 78.9668 112.142 78.318 112.142C77.6692 112.142 77.0469 112.4 76.5881 112.858C76.1293 113.317 75.8716 113.939 75.8716 114.588V115.845C75.7773 115.871 75.6837 115.896 75.5881 115.924C72.8478 116.75 70.8016 119.087 70.2481 122.024C69.7392 124.725 70.6202 127.342 72.5471 128.854C74.147 130.108 76.3635 131.173 80.1969 132.528C82.8139 133.453 82.7571 135.574 82.611 136.443C82.3165 138.195 80.8421 140.09 78.3014 140.106C75.8409 140.122 75.0682 140.001 73.1711 138.76C72.6281 138.41 71.9688 138.289 71.337 138.423C70.7051 138.557 70.152 138.936 69.7984 139.477C69.4447 140.017 69.3192 140.676 69.4492 141.308C69.5793 141.941 69.9542 142.497 70.4924 142.854C72.5311 144.188 74.0286 144.719 75.8713 144.908V146.139C75.8713 146.788 76.129 147.41 76.5878 147.869C77.0466 148.327 77.6689 148.585 78.3177 148.585C78.9665 148.585 79.5888 148.327 80.0476 147.869C80.5064 147.41 80.7641 146.788 80.7641 146.139V144.671C84.5045 143.656 86.9014 140.434 87.436 137.254C88.1347 133.101 85.8807 129.348 81.8278 127.915ZM111.589 115.705C123.066 115.705 132.403 106.367 132.403 94.89C132.403 83.4126 123.066 74.0754 111.589 74.0754C100.111 74.0754 90.7743 83.4126 90.7743 94.89C90.7743 106.367 100.111 115.705 111.589 115.705ZM111.588 78.9683C120.368 78.9683 127.51 86.1106 127.51 94.89C127.51 103.669 120.368 110.812 111.588 110.812C102.809 110.812 95.6664 103.669 95.6664 94.89C95.6664 86.1106 102.809 78.9683 111.588 78.9683Z" fill="black"/>
<path d="M164.895 132.064L149.792 116.961C149.125 116.29 148.332 115.759 147.459 115.397C146.585 115.035 145.648 114.85 144.703 114.853C143.976 114.853 143.265 114.961 142.589 115.167L139.572 112.15C142.68 107.13 144.477 101.216 144.477 94.8899C144.477 76.7554 129.723 62.0015 111.588 62.0015C104.322 62.0015 97.5991 64.3722 92.1501 68.3785C90.5504 67.2449 88.6532 66.6057 86.6936 66.5401C83.8727 66.4393 81.2019 67.4609 79.1743 69.4171C78.929 69.6536 78.6954 69.9019 78.4743 70.1611C78.2531 69.9019 78.0195 69.6536 77.7743 69.4171C75.7467 67.4606 73.0748 66.4396 70.2562 66.5401C64.6927 66.7361 60.3345 71.3361 60.3345 77.0124V81.2806C60.3345 86.9691 62.9685 92.0518 67.0785 95.3802C59.3311 97.1433 52.3614 101.569 47.4761 107.91C45.7208 105.739 43.0379 104.347 40.035 104.347H9.62462C4.34979 104.347 0.0581055 108.639 0.0581055 113.914C0.0581055 116.739 1.29045 119.281 3.24466 121.034C1.29078 122.787 0.0587579 125.33 0.0587579 128.155C0.0587579 130.714 1.05527 133.117 2.86204 134.919C2.98534 135.043 3.11157 135.161 3.24009 135.277C1.2885 137.029 0.0581055 139.57 0.0581055 142.394C0.0581055 144.953 1.05462 147.356 2.86139 149.158C2.98534 149.282 3.11255 149.401 3.24172 149.517C1.28947 151.27 0.059084 153.81 0.059084 156.633C0.059084 159.192 1.05462 161.595 2.85975 163.396C3.05347 163.591 3.25603 163.776 3.46679 163.953C3.90524 164.318 4.45795 164.518 5.02859 164.517C5.53182 164.517 6.02288 164.363 6.43484 164.074C6.84679 163.784 7.1596 163.375 7.33061 162.902C7.50163 162.429 7.52253 161.914 7.39047 161.429C7.25842 160.943 6.97983 160.51 6.59268 160.189C6.51015 160.12 6.41784 160.035 6.31705 159.934C5.43633 159.055 4.95129 157.883 4.95129 156.633C4.95129 154.057 7.04804 151.962 9.62559 151.962H20.3455C19.5423 153.388 19.121 154.997 19.1223 156.634C19.1209 158.271 19.5424 159.881 20.3458 161.307H14.5191C13.8703 161.307 13.248 161.565 12.7892 162.024C12.3304 162.483 12.0727 163.105 12.0727 163.754C12.0727 164.402 12.3304 165.025 12.7892 165.483C13.248 165.942 13.8703 166.2 14.5191 166.2L114.109 166.201C121.008 166.201 126.621 160.588 126.621 153.689C126.621 150.344 125.319 147.202 122.956 144.843C121.178 143.069 118.963 141.893 116.556 141.418V128.762C116.556 128.311 116.544 127.859 116.526 127.408C120.898 126.746 125.09 125.203 128.848 122.873L131.871 125.896C131.121 128.36 131.715 131.149 133.66 133.094L148.763 148.197C150.166 149.6 152.009 150.302 153.852 150.302C155.695 150.302 157.539 149.6 158.942 148.197L164.895 142.243C167.702 139.436 167.702 134.87 164.895 132.064ZM139.584 94.8899C139.584 110.327 127.025 122.885 111.589 122.886C96.1521 122.886 83.5932 110.327 83.5932 94.8899C83.5932 79.453 96.1518 66.8943 111.588 66.8943C127.025 66.8943 139.584 79.453 139.584 94.8899ZM65.227 81.2806V77.0124C65.227 74.0353 67.5603 71.5308 70.4294 71.4297C71.912 71.3775 73.3133 71.9124 74.3763 72.9383C74.9007 73.4407 75.3174 74.0444 75.6013 74.7128C75.8851 75.3812 76.0301 76.1003 76.0275 76.8265C76.0275 77.4753 76.2853 78.0976 76.744 78.5564C77.2028 79.0152 77.8251 79.2729 78.4739 79.2729C79.1228 79.2729 79.745 79.0152 80.2038 78.5564C80.6626 78.0976 80.9204 77.4753 80.9204 76.8265C80.9176 76.1003 81.0626 75.3811 81.3464 74.7127C81.6303 74.0443 82.0471 73.4406 82.5715 72.9383C83.6346 71.9124 85.029 71.3752 86.5214 71.43C87.1075 71.4502 87.6751 71.5735 88.2107 71.7816C82.4146 77.6446 78.8024 85.6692 78.7049 94.5226C78.6279 94.524 78.5509 94.5275 78.4739 94.5275C71.1696 94.5275 65.227 88.585 65.227 81.2806ZM59.0995 132.828L28.6705 132.827C26.1021 132.816 24.0158 130.725 24.0158 128.154C24.0158 125.579 26.109 123.484 28.6833 123.481L59.0995 123.48C61.6764 123.48 63.7732 125.577 63.7732 128.154C63.7732 130.731 61.6764 132.828 59.0995 132.828ZM63.7732 142.394C63.7732 144.971 61.6764 147.068 59.0995 147.068H28.6895C26.1126 147.068 24.0158 144.971 24.0158 142.394C24.0158 139.817 26.1126 137.72 28.6895 137.72H59.0995C61.6764 137.72 63.7732 139.817 63.7732 142.394ZM9.62462 109.24H40.0347C42.6116 109.24 44.7083 111.336 44.7083 113.913C44.7083 116.49 42.6116 118.587 40.0347 118.587H9.62462C7.04771 118.587 4.95096 116.491 4.95096 113.913C4.95096 111.336 7.04771 109.24 9.62462 109.24ZM6.31966 131.458C5.88423 131.025 5.53907 130.511 5.30422 129.944C5.06937 129.377 4.94951 128.769 4.95161 128.155C4.95161 125.578 7.04869 123.481 9.62625 123.481H20.3465C19.5685 124.864 19.1226 126.457 19.1226 128.154C19.1226 129.85 19.5685 131.444 20.3462 132.827H9.62396C9.01004 132.828 8.40189 132.708 7.83471 132.473C7.26754 132.238 6.75259 131.893 6.31966 131.458ZM9.62625 137.719H20.3471C19.5689 139.103 19.1226 140.697 19.1226 142.394C19.1226 144.091 19.5689 145.685 20.3471 147.069H9.62592C9.01132 147.07 8.40256 146.95 7.83491 146.714C7.26726 146.478 6.75201 146.133 6.319 145.696C5.88358 145.264 5.53842 144.749 5.30357 144.182C5.06872 143.616 4.94886 143.008 4.95096 142.394C4.95096 139.817 7.04706 137.72 9.62364 137.719H9.62625ZM24.0158 156.634C24.0158 154.067 26.0972 151.977 28.6611 151.962L59.0995 151.961C61.6764 151.961 63.7732 154.057 63.7732 156.634C63.7732 159.211 61.6764 161.308 59.0995 161.308L28.6784 161.307C26.1064 161.301 24.0158 159.207 24.0158 156.634ZM111.663 128.762V143.627C111.663 144.276 111.921 144.898 112.379 145.357C112.838 145.815 113.46 146.073 114.109 146.073C116.142 146.073 118.056 146.866 119.499 148.306C120.937 149.741 121.728 151.653 121.728 153.689C121.728 157.89 118.31 161.308 114.109 161.308H67.4418C68.2457 159.882 68.6674 158.272 68.666 156.634C68.666 153.809 67.434 151.267 65.4801 149.514C67.434 147.761 68.666 145.219 68.666 142.394C68.666 139.569 67.434 137.027 65.4801 135.274C67.434 133.521 68.666 130.979 68.666 128.154C68.666 122.879 64.3744 118.587 59.0995 118.587H48.3777C49.2572 117.026 49.6775 115.248 49.5901 113.459C54.9083 104.781 64.4295 99.4204 74.6268 99.4204H79.0141C81.2283 115.419 94.9912 127.778 111.589 127.778L111.645 127.778C111.656 128.106 111.663 128.434 111.663 128.762ZM136.656 116.154L138.538 118.036L134.734 121.84L132.852 119.958C134.221 118.795 135.493 117.523 136.656 116.154ZM161.436 138.783L155.482 144.737C155.049 145.168 154.463 145.411 153.852 145.411C153.241 145.411 152.655 145.168 152.222 144.737L137.119 129.634C136.688 129.201 136.445 128.615 136.445 128.004C136.445 127.393 136.688 126.807 137.119 126.374L143.073 120.421C143.522 119.972 144.112 119.747 144.703 119.747C145.293 119.747 145.883 119.972 146.333 120.421L161.436 135.524C162.334 136.422 162.334 137.884 161.436 138.783Z" fill="black"/>
<path d="M2.87967 71.8863L28.7009 95.5155C30.3386 97.0159 32.4798 97.8467 34.7008 97.8436C36.1902 97.8459 37.6561 97.4726 38.963 96.7583C40.2699 96.044 41.3756 95.0116 42.1778 93.7567L76.8136 39.7846L96.5126 58.0275C98.2763 59.6659 100.669 60.5245 103.071 60.3803C105.478 60.2413 107.755 59.1088 109.316 57.2743L126.802 36.7595L129.333 38.917C131.534 40.7939 134.476 41.3363 137.201 40.3692C139.928 39.4013 141.869 37.1252 142.395 34.2789L146.818 10.2605C147.341 7.41545 146.339 4.59716 144.138 2.72124C141.938 0.845648 138.996 0.302867 136.27 1.26969L113.257 9.4437C110.531 10.4125 108.591 12.6893 108.067 15.5347C107.543 18.3794 108.543 21.1976 110.744 23.0736L113.276 25.2313L101.796 38.6974L98.5614 35.7007C98.3257 35.4824 98.0494 35.3126 97.7481 35.201C97.4468 35.0895 97.1265 35.0383 96.8055 35.0506C96.4844 35.0628 96.1689 35.1382 95.877 35.2723C95.5851 35.4065 95.3225 35.5968 95.1041 35.8325C94.8858 36.0682 94.716 36.3445 94.6044 36.6458C94.4929 36.9471 94.4417 37.2674 94.454 37.5884C94.4662 37.9095 94.5416 38.225 94.6757 38.5169C94.8099 38.8088 95.0002 39.0714 95.2359 39.2898L100.341 44.0196C100.583 44.2437 100.867 44.4165 101.178 44.5278C101.488 44.6391 101.818 44.6864 102.147 44.6671C102.476 44.6477 102.798 44.562 103.094 44.415C103.389 44.2681 103.651 44.063 103.865 43.8121L118.586 26.5436C118.795 26.2991 118.953 26.016 119.052 25.7103C119.151 25.4047 119.189 25.0825 119.163 24.7623C119.138 24.442 119.05 24.1299 118.903 23.8438C118.757 23.5576 118.556 23.3031 118.312 23.0948L113.918 19.3504C112.687 18.3004 112.781 16.9526 112.879 16.4219C112.977 15.8909 113.369 14.5969 114.895 14.0547L137.906 5.88072C139.433 5.33925 140.553 6.09503 140.964 6.44503C141.375 6.79503 142.299 7.78143 142.006 9.3752L137.583 33.3913C137.289 34.9854 136.073 35.5774 135.564 35.7581C135.056 35.9385 133.74 36.2445 132.507 35.1935L128.114 31.4488C127.62 31.028 126.979 30.8205 126.332 30.872C125.685 30.9236 125.086 31.23 124.665 31.7238L105.591 54.1018C105.241 54.5111 104.812 54.8456 104.33 55.0851C103.848 55.3247 103.322 55.4644 102.784 55.4959C102.248 55.5273 101.71 55.45 101.204 55.2686C100.698 55.0872 100.234 54.8055 99.8398 54.4404L77.9948 34.21C77.7324 33.9671 77.4199 33.7846 77.0793 33.6755C76.7387 33.5663 76.3784 33.5332 76.0236 33.5783C75.6689 33.6235 75.3283 33.7458 75.026 33.9368C74.7236 34.1278 74.4668 34.3827 74.2736 34.6837L38.0586 91.1156C37.7458 91.6054 37.3295 92.0207 36.8388 92.3323C36.3482 92.6438 35.7952 92.844 35.2188 92.9187C35.0548 92.9399 34.8802 92.9507 34.7005 92.9507C33.7025 92.9526 32.7401 92.5798 32.0039 91.9059L6.1843 68.278C4.56085 66.7899 4.4493 64.2567 5.93444 62.6326C6.28755 62.2449 6.71408 61.931 7.18934 61.7092C7.6646 61.4874 8.17913 61.3621 8.70315 61.3406C9.22717 61.316 9.75085 61.3956 10.2439 61.5748C10.737 61.754 11.1896 62.0291 11.5756 62.3844L31.757 80.8533C32.02 81.0938 32.3324 81.274 32.6723 81.3812C33.0122 81.4885 33.3714 81.5202 33.7248 81.4741C34.0782 81.428 34.4173 81.3053 34.7184 81.1145C35.0194 80.9237 35.2752 80.6695 35.4677 80.3696L71.7022 23.8991C72.0176 23.4073 72.4371 22.9907 72.9309 22.6785C73.4248 22.3664 73.9811 22.1663 74.5607 22.0924C75.7375 21.9423 76.9092 22.3181 77.7785 23.1241L88.06 32.6456C88.5361 33.0865 89.1678 33.3202 89.8162 33.2953C90.4645 33.2704 91.0765 32.9889 91.5173 32.5129C91.9582 32.0368 92.1919 31.4051 92.167 30.7567C92.1421 30.1083 91.8606 29.4964 91.3846 29.0556L81.1044 19.5354C80.152 18.6503 79.0166 17.9857 77.7785 17.5888C76.5405 17.1919 75.2303 17.0723 73.9409 17.2387C72.6525 17.4025 71.4157 17.8469 70.3177 18.5407C69.2197 19.2344 68.2872 20.1605 67.586 21.2537L32.9182 75.2833L14.8792 58.7751C11.265 55.4665 5.63369 55.7154 2.32449 59.3299C-0.979815 62.9441 -0.731584 68.5761 2.87967 71.8863Z" fill="black"/>
</g>
<defs>
<clipPath id="clip0_114_42">
<rect width="167" height="167" fill="white"/>
</clipPath>
</defs>
</svg>
