<svg width="168" height="168" viewBox="0 0 168 168" fill="none" xmlns="http://www.w3.org/2000/svg">
<g clip-path="url(#clip0_118_18)">
<path d="M168 119.304V127.304C168 133.932 163.095 139.304 157.043 139.304H153.391C155.408 139.304 157.043 141.095 157.043 143.304V171.304C157.043 173.514 155.408 175.304 153.391 175.304H14.6087C12.5916 175.304 10.9565 173.514 10.9565 171.304V143.304C10.9565 141.095 12.5916 139.304 14.6087 139.304H40.1739C38.1568 139.304 36.5217 137.514 36.5217 135.304C36.5217 133.095 38.1568 131.304 40.1739 131.304H43.8261V115.304H40.1739C38.1568 115.304 36.5217 113.514 36.5217 111.304C36.5217 109.095 38.1568 107.304 40.1739 107.304H10.9565C4.90523 107.304 0 101.932 0 95.3044V79.3044C0 72.6768 4.90523 67.3044 10.9565 67.3044H54.7826V39.3044H10.9565C4.90523 39.3044 0 33.932 0 27.3044V19.3044C0 12.6768 4.90523 7.30444 10.9565 7.30444H127.826C129.843 7.30444 131.478 9.09524 131.478 11.3044C131.478 13.5136 129.843 15.3044 127.826 15.3044H124.174V31.3044H127.826C129.843 31.3044 131.478 33.0952 131.478 35.3044C131.478 37.5136 129.843 39.3044 127.826 39.3044H135.13V67.3044H127.826C129.843 67.3044 131.478 69.0952 131.478 71.3044C131.478 73.5136 129.843 75.3044 127.826 75.3044V99.3044C129.843 99.3044 131.478 101.095 131.478 103.304C131.478 105.514 129.843 107.304 127.826 107.304H157.043C163.095 107.304 168 112.677 168 119.304Z" fill="#59595B"/>
<path d="M43.8257 175.304H32.8691V139.304H43.8257V175.304ZM135.13 139.304H124.173V175.304H135.13V139.304Z" fill="#C18F2B"/>
<path d="M135.13 67.3044H127.826C129.843 67.3044 131.478 69.0952 131.478 71.3044C131.478 73.5136 129.843 75.3044 127.826 75.3044V99.3044C129.843 99.3044 131.478 101.095 131.478 103.304C131.478 105.514 129.843 107.304 127.826 107.304H157.043C163.095 107.304 168 112.677 168 119.304V127.304C168 133.932 163.095 139.304 157.043 139.304H40.1739C38.1568 139.304 36.5217 137.514 36.5217 135.304C36.5217 133.095 38.1568 131.304 40.1739 131.304H43.8261V115.304H40.1739C38.1568 115.304 36.5217 113.514 36.5217 111.304C36.5217 109.095 38.1568 107.304 40.1739 107.304H10.9565C4.90523 107.304 0 101.932 0 95.3044V79.3044C0 72.6768 4.90523 67.3044 10.9565 67.3044H25.5652C23.5481 67.3044 21.913 65.5136 21.913 63.3044V43.3044C21.913 41.0952 23.5481 39.3044 25.5652 39.3044H10.9565C4.90523 39.3044 0 33.932 0 27.3044V19.3044C0 12.6768 4.90523 7.30444 10.9565 7.30444H127.826C129.843 7.30444 131.478 9.09524 131.478 11.3044C131.478 13.5136 129.843 15.3044 127.826 15.3044H124.174V31.3044H127.826C129.843 31.3044 131.478 33.0952 131.478 35.3044C131.478 37.5136 129.843 39.3044 127.826 39.3044H164.348C166.365 39.3044 168 41.0952 168 43.3044V63.3044C168 65.5136 166.365 67.3044 164.348 67.3044H135.13Z" fill="#732D21"/>
<path d="M160.695 121.304V125.304C160.695 128.618 158.242 131.304 155.217 131.304H50.1503C50.7723 128.95 51.1298 126.22 51.1298 123.304C51.1298 120.389 50.7723 117.658 50.1503 115.304H155.217C158.242 115.304 160.695 117.991 160.695 121.304ZM7.30371 21.3044V25.3044C7.30371 28.618 9.75651 31.3044 12.782 31.3044H117.848C117.226 28.9504 116.869 26.2196 116.869 23.3044C116.869 20.3892 117.226 17.6584 117.848 15.3044H12.782C9.75651 15.3044 7.30371 17.9908 7.30371 21.3044Z" fill="#8F8D7E"/>
<path d="M153.391 121.304V125.304C153.391 128.618 150.938 131.304 147.913 131.304H42.8463C43.4682 128.95 43.8258 126.22 43.8258 123.304C43.8258 120.389 43.4682 117.658 42.8463 115.304H147.913C150.938 115.304 153.391 117.991 153.391 121.304ZM14.6084 21.3044V25.3044C14.6084 28.618 17.0612 31.3044 20.0867 31.3044H125.153C124.531 28.9504 124.174 26.2196 124.174 23.3044C124.174 20.3892 124.531 17.6584 125.153 15.3044H20.0867C17.0612 15.3044 14.6084 17.9908 14.6084 21.3044Z" fill="#C6C2AC"/>
<path d="M132.814 123.304C132.814 124.409 120.55 125.304 105.423 125.304C90.2949 125.304 78.0312 124.409 78.0312 123.304C78.0312 122.2 90.2949 121.304 105.423 121.304C120.55 121.304 132.814 122.2 132.814 123.304ZM111.391 19.3044C96.2629 19.3044 83.9993 20.2 83.9993 21.3044C83.9993 22.4088 96.2629 23.3044 111.391 23.3044C116.01 23.3044 120.359 23.2204 124.177 23.0732C124.185 21.8584 124.256 20.678 124.381 19.5432C120.515 19.3908 116.092 19.3044 111.391 19.3044Z" fill="#8F8D7E"/>
<path d="M116.87 151.304L105.914 147.304L94.957 151.304V125.304C94.957 124.774 95.1494 124.265 95.4919 123.89C95.8343 123.515 96.2988 123.304 96.7831 123.304H115.044C115.528 123.304 115.993 123.515 116.335 123.89C116.678 124.265 116.87 124.774 116.87 125.304V151.304Z" fill="#B04230"/>
<path d="M168 43.3044V63.3044C168 65.5136 166.365 67.3044 164.348 67.3044H127.826C129.843 67.3044 131.478 69.0952 131.478 71.3044C131.478 73.5136 129.843 75.3044 127.826 75.3044V99.3044C129.843 99.3044 131.478 101.095 131.478 103.304C131.478 105.514 129.843 107.304 127.826 107.304H10.9565C4.90523 107.304 0 101.932 0 95.3044V79.3044C0 72.6768 4.90523 67.3044 10.9565 67.3044H25.5652C23.5481 67.3044 21.913 65.5136 21.913 63.3044V43.3044C21.913 41.0952 23.5481 39.3044 25.5652 39.3044H164.348C166.365 39.3044 168 41.0952 168 43.3044Z" fill="#677445"/>
<path d="M135.13 67.3044H54.7819V39.3044H135.13V67.3044ZM43.8253 39.3044H36.521V67.3044H43.8253V39.3044ZM157.043 39.3044H142.434V67.3044H157.043V39.3044Z" fill="#798751"/>
<path d="M131.478 103.304C131.478 105.514 129.843 107.304 127.826 107.304H10.9565C4.90523 107.304 0 101.932 0 95.3044V79.3044C0 72.6768 4.90523 67.3044 10.9565 67.3044H127.826C129.843 67.3044 131.478 69.0952 131.478 71.3044C131.478 73.5136 129.843 75.3044 127.826 75.3044V99.3044C129.843 99.3044 131.478 101.095 131.478 103.304Z" fill="#B14724"/>
<path d="M11.8025 75.3044H116.869C116.247 78.8352 115.889 82.9312 115.889 87.3044C115.889 91.6772 116.247 95.7736 116.869 99.3044H11.8025C8.77702 99.3044 6.32422 95.2748 6.32422 90.3044V84.3044C6.32422 79.334 8.77665 75.3044 11.8025 75.3044Z" fill="#8F8D7E"/>
<path d="M20.2678 75.3044H128.806C128.163 78.8352 127.794 82.9312 127.794 87.3044C127.794 91.6772 128.163 95.7736 128.806 99.3044H20.2678C17.1423 99.3044 14.6084 95.2748 14.6084 90.3044V84.3044C14.6084 79.334 17.1423 75.3044 20.2678 75.3044Z" fill="#C6C2AC"/>
<path d="M61.5969 85.3044C76.7245 85.3044 88.9882 86.2 88.9882 87.3044C88.9882 88.4088 76.7245 89.3044 61.5969 89.3044C46.4692 89.3044 34.2056 88.4088 34.2056 87.3044C34.2056 86.2 46.4688 85.3044 61.5969 85.3044ZM126.979 79.3044C111.852 79.3044 99.5879 80.2 99.5879 81.3044C99.5879 82.4088 111.852 83.3044 126.979 83.3044C127.289 83.3044 127.595 83.3036 127.902 83.3028C127.976 81.928 128.083 80.5916 128.226 79.3068C127.81 79.3052 127.395 79.3044 126.979 79.3044ZM127.902 91.306C127.595 91.3052 127.289 91.3044 126.979 91.3044C111.852 91.3044 99.5879 92.2 99.5879 93.3044C99.5879 94.4088 111.852 95.3044 126.979 95.3044C127.397 95.3044 127.812 95.3036 128.226 95.302C128.08 93.9741 127.972 92.6414 127.902 91.306Z" fill="#8F8D7E"/>
</g>
<defs>
<clipPath id="clip0_118_18">
<rect width="168" height="168" fill="white"/>
</clipPath>
</defs>
</svg>
